<svg id="Warstwa_1" data-name="Warstwa 1" xmlns="http://www.w3.org/2000/svg" viewBox="0 0 337 336.97"><defs><style>.cls-1{fill:#995f36;}.cls-2{fill:#fdfcfc;}</style></defs><title>recycle-symbols</title><path class="cls-1" d="M337,168.6V332.29c0,4.68,0,4.68-4.51,4.68H4.52C0,337,0,337,0,332.59V4.31C0,0,0,0,4.21,0H332.79C337,0,337,0,337,4.31Zm-160.83-102c.09-1,1.14-.75,1.46-1.37,3.39-6.41,9.09-8.45,15.51-5.59A15.27,15.27,0,0,0,199.52,61c3.85,0,6.36-1.51,7-4.31.9-3.79-.59-7.74-3.68-9.28a32.83,32.83,0,0,0-20.64-2.95c-11.51,2-18.08,10.1-22.6,20.1-1,2.23-2.15,3.17-4.45,2.92A14.38,14.38,0,0,1,150,66.25c-5.66-3-11.54-2.11-17.19-.38a81.17,81.17,0,0,0-14.89,5.95,77,77,0,0,0-19.3,14.32,72.63,72.63,0,0,0-14.54,23.35c-1.84,4.55-.25,9.72,4.24,11.17a56.64,56.64,0,0,1,6.77,2.61c7.88,3.73,15.11,8.28,20.8,15,5.84,6.92,8.72,15,9.94,23.87.82,5.87.49,11.77.57,17.66.19,14.74-3.43,28.36-12.18,40.38-4.24,5.84-9.29,10.8-15.91,14.06-3,1.44-6.14,2.23-9,4-4.88,3-7.34,6.88-5.75,10.53,4,9.16,8.87,17.73,16.22,24.78a78.63,78.63,0,0,0,21.16,14.71,104.6,104.6,0,0,0,14.5,5.41c3.3,1,6.82,1.19,10.19,2.16a8.8,8.8,0,0,0,5.33-.24c5.24-1.92,10.47-3.79,16.13-4.13a48.25,48.25,0,0,1,18.3,1.94c3.27,1.08,6.4,3,10,2.49,2.05-.31,4-1.2,6.05-1.58,7.12-1.32,13.74-4.23,20-7.52a57.76,57.76,0,0,0,10.73-7.88c8.21-7.2,14.84-15.6,18.84-25.81,1.31-3.34,3.75-6.81.8-10.7a12.64,12.64,0,0,0-5.91-4.26,48.92,48.92,0,0,1-15.61-9.06,56.18,56.18,0,0,1-14-18.73,74,74,0,0,1-4.94-14.66c-.75-3.4-.77-6.9-1.53-10.34a30.73,30.73,0,0,1-.62-9.79c.45-4,.59-8.08,1.26-12.12a64.13,64.13,0,0,1,4.7-16.84c3.84-8.31,10.13-14.08,17.66-18.85,2.34-1.48,5-1.75,7.45-2.55,3.21-1,6.15-3.18,8.91-5.24,4.05-3,4.37-5.3,2.89-10.06a30,30,0,0,0-2.84-6.62,108,108,0,0,0-9.87-14.35,59.29,59.29,0,0,0-10.17-9.65,77.91,77.91,0,0,0-15.46-8.89,75,75,0,0,0-23.82-6.07c-3.58-.27-6.66.69-9.81,1.77C178.8,66.55,177.65,67.29,176.17,66.57Z"/><path class="cls-2" d="M176.17,66.57c1.48.72,2.63,0,3.94-.47,3.15-1.08,6.23-2,9.81-1.77a75,75,0,0,1,23.82,6.07,77.91,77.91,0,0,1,15.46,8.89,59.29,59.29,0,0,1,10.17,9.65,108,108,0,0,1,9.87,14.35,30,30,0,0,1,2.84,6.62c1.48,4.76,1.16,7-2.89,10.06-2.76,2.06-5.7,4.21-8.91,5.24-2.49.8-5.11,1.07-7.45,2.55-7.53,4.77-13.82,10.54-17.66,18.85a64.13,64.13,0,0,0-4.7,16.84c-.67,4-.81,8.09-1.26,12.12a30.73,30.73,0,0,0,.62,9.79c.76,3.44.78,6.94,1.53,10.34a74,74,0,0,0,4.94,14.66,56.18,56.18,0,0,0,14,18.73,48.92,48.92,0,0,0,15.61,9.06,12.64,12.64,0,0,1,5.91,4.26c2.95,3.89.51,7.36-.8,10.7-4,10.21-10.63,18.61-18.84,25.81a57.76,57.76,0,0,1-10.73,7.88c-6.26,3.29-12.88,6.2-20,7.52-2,.38-4,1.27-6.05,1.58-3.63.54-6.76-1.41-10-2.49a48.25,48.25,0,0,0-18.3-1.94c-5.66.34-10.89,2.21-16.13,4.13a8.8,8.8,0,0,1-5.33.24c-3.37-1-6.89-1.16-10.19-2.16a104.6,104.6,0,0,1-14.5-5.41,78.63,78.63,0,0,1-21.16-14.71c-7.35-7.05-12.22-15.62-16.22-24.78-1.59-3.65.87-7.54,5.75-10.53,2.84-1.75,6-2.54,9-4,6.62-3.26,11.67-8.22,15.91-14.06,8.75-12,12.37-25.64,12.18-40.38-.08-5.89.25-11.79-.57-17.66-1.22-8.83-4.1-16.95-9.94-23.87-5.69-6.75-12.92-11.3-20.8-15a56.64,56.64,0,0,0-6.77-2.61c-4.49-1.45-6.08-6.62-4.24-11.17A72.63,72.63,0,0,1,98.59,86.14a77,77,0,0,1,19.3-14.32,81.17,81.17,0,0,1,14.89-5.95c5.65-1.73,11.53-2.58,17.19.38a14.38,14.38,0,0,0,5.21,1.26c2.3.25,3.44-.69,4.45-2.92,4.52-10,11.09-18.06,22.6-20.1a32.83,32.83,0,0,1,20.64,2.95c3.09,1.54,4.58,5.49,3.68,9.28-.67,2.8-3.18,4.3-7,4.31a15.27,15.27,0,0,1-6.38-1.42c-6.42-2.86-12.12-.82-15.51,5.59C177.31,65.82,176.26,65.59,176.17,66.57ZM141.38,175.68c.08,8-.1,14.59-1.74,21.18-.83,3.36-1.58,6.75-2.59,10.07a71,71,0,0,1-6,14.22c-1.75,3.12-3.85,6-5.6,9.11-.95,1.66-.81,3,1.51,3.2a16.16,16.16,0,0,1,6.52,2,10.77,10.77,0,0,0,10.91.4,20.42,20.42,0,0,1,4.19-1.59c13.75-3.49,27.39-3.66,40.89,1.26,4.13,1.5,8.32,3.44,12.67.53.23-.15.59-.08.88-.15l8.38-2.23c1.28-.35,2.05-.77.82-2.21a70.7,70.7,0,0,1-8.52-13.22,75.29,75.29,0,0,1-7.73-24.3,131.43,131.43,0,0,1,0-34.94,41.37,41.37,0,0,1,3.34-12.63,92.31,92.31,0,0,1,9.09-16c1.72-2.35.92-3.55-1.7-4.67s-5.08-1.92-7.46-3.18a4.48,4.48,0,0,0-4.15-.15c-6.66,2.43-13.19,5.23-20.49,5.47-10.16.34-20.09-.31-29.69-4-2.06-.79-4.14-2.15-6.6-1.42-3.51,1.06-7,2.09-10.56,3.14-1.7.51-2.38,1.08-.88,2.85a56.66,56.66,0,0,1,11.9,23.11C140.81,159.77,142.09,168.28,141.38,175.68Zm80.52-62.82a69.32,69.32,0,0,0,8-.61c4.56-.84,5.35-3.51,2.79-7.22A58.09,58.09,0,0,0,218.86,90.8c-8.47-6.15-18.1-9.41-28.1-11.83a7.6,7.6,0,0,0-4.36.61,60.59,60.59,0,0,1-10,2.89C170,83.58,163.46,83,157,83a30.7,30.7,0,0,1-6.71-1.27c-3.52-.8-6.85-3-10.67-2a73.37,73.37,0,0,0-13.94,5.12,56.46,56.46,0,0,0-24,22.09c-1,1.72-.92,3.06,1.51,3.33a18.82,18.82,0,0,1,3.52.64c8.67,2.85,17,.87,25.06-2.18,5.5-2.07,10.48-3,15.88.18a21.77,21.77,0,0,0,8.67,3.08c9.79.93,19.65,2.3,29.28-1.45a49.6,49.6,0,0,0,5.53-2.13,13.58,13.58,0,0,1,12.18.06C209.32,111.3,215.24,113.18,221.9,112.86ZM114.67,247.05c-4,.14-8.12-.43-11.77,2.2-1.24.89-1.71,1.15-.82,2.64a52,52,0,0,0,12.27,14.42,67.69,67.69,0,0,0,18.13,10.44c3.36,1.27,7,1.55,10.17,3.07,2.76,1.31,5.27.89,8-.14,3.5-1.31,7.17-2.76,10.82-3,10.9-.58,21.92-1.32,32.24,3.67a2.37,2.37,0,0,0,1.73.12c2.86-1.17,5.94-1.66,8.79-2.74A62.57,62.57,0,0,0,222.56,267a41.4,41.4,0,0,0,11.27-14c1.23-2.64.64-3.21-2.3-3.53-6.51-.7-12.89-1.67-19.57-.27a75.19,75.19,0,0,0-11.27,3.48,11.1,11.1,0,0,1-9.12-.16c-6.41-2.87-12.9-5.54-20.14-5.4-3.19.06-6.38,0-9.58,0-5.27,0-10.14,1.79-14.77,4-5.14,2.4-10.16,2.86-15.09.21C126.53,248.35,120.92,246.54,114.67,247.05Z"/><path class="cls-1" d="M141.38,175.68c.71-7.4-.57-15.91-2.65-24.24a56.66,56.66,0,0,0-11.9-23.11c-1.5-1.77-.82-2.34.88-2.85,3.52-1,7-2.08,10.56-3.14,2.46-.73,4.54.63,6.6,1.42,9.6,3.72,19.53,4.37,29.69,4,7.3-.24,13.83-3,20.49-5.47a4.48,4.48,0,0,1,4.15.15c2.38,1.26,5,2.11,7.46,3.18s3.42,2.32,1.7,4.67a92.31,92.31,0,0,0-9.09,16A41.37,41.37,0,0,0,195.93,159a131.43,131.43,0,0,0,0,34.94,75.29,75.29,0,0,0,7.73,24.3,70.7,70.7,0,0,0,8.52,13.22c1.23,1.44.46,1.86-.82,2.21L203,235.89c-.29.07-.65,0-.88.15-4.35,2.91-8.54,1-12.67-.53-13.5-4.92-27.14-4.75-40.89-1.26a20.42,20.42,0,0,0-4.19,1.59,10.77,10.77,0,0,1-10.91-.4,16.16,16.16,0,0,0-6.52-2c-2.32-.23-2.46-1.54-1.51-3.2,1.75-3.11,3.85-6,5.6-9.11a71,71,0,0,0,6-14.22c1-3.32,1.76-6.71,2.59-10.07C141.28,190.27,141.46,183.64,141.38,175.68Zm45.2-2.31h0c0-2.69.05-5.39,0-8.08-.09-3.7-2.41-6.06-6.13-6.36-5.83-.47-8.91,2.41-9.35,8.55-.25,3.37.06,6.78-.09,10.17a11.73,11.73,0,0,0,1.73,6.53c1.08,1.88,5.48,4.32,7.23,4,3.88-.79,6.53-3.66,6.62-7.3C186.63,178.36,186.58,175.86,186.58,173.37Zm-24.6-.16h0v-6.89c0-.2,0-.4,0-.6-.28-4-2.57-6-6.46-6.33s-7.4,2.77-7.39,6.13c0,5,0,10,0,15a6.75,6.75,0,0,0,7.2,6.34c4.25-.29,6.45-2.15,6.65-6.44C162.08,178,162,175.6,162,173.21Z"/><path class="cls-1" d="M221.9,112.86c-6.66.32-12.58-1.56-18.59-4.48a13.58,13.58,0,0,0-12.18-.06,49.6,49.6,0,0,1-5.53,2.13c-9.63,3.75-19.49,2.38-29.28,1.45a21.77,21.77,0,0,1-8.67-3.08c-5.4-3.2-10.38-2.25-15.88-.18-8.05,3-16.39,5-25.06,2.18a18.82,18.82,0,0,0-3.52-.64c-2.43-.27-2.55-1.61-1.51-3.33a56.46,56.46,0,0,1,24-22.09,73.37,73.37,0,0,1,13.94-5.12c3.82-1,7.15,1.24,10.67,2A30.7,30.7,0,0,0,157,83c6.49,0,13,.63,19.44-.48a60.59,60.59,0,0,0,10-2.89,7.6,7.6,0,0,1,4.36-.61c10,2.42,19.63,5.68,28.1,11.83A58.09,58.09,0,0,1,232.74,105c2.56,3.71,1.77,6.38-2.79,7.22A69.32,69.32,0,0,1,221.9,112.86Z"/><path class="cls-1" d="M114.67,247.05c6.25-.51,11.86,1.3,17.32,4.23,4.93,2.65,9.95,2.19,15.09-.21,4.63-2.17,9.5-4,14.77-4,3.2,0,6.39,0,9.58,0,7.24-.14,13.73,2.53,20.14,5.4a11.1,11.1,0,0,0,9.12.16A75.19,75.19,0,0,1,212,249.16c6.68-1.4,13.06-.43,19.57.27,2.94.32,3.53.89,2.3,3.53a41.4,41.4,0,0,1-11.27,14,62.57,62.57,0,0,1-18.29,10.82c-2.85,1.08-5.93,1.57-8.79,2.74a2.37,2.37,0,0,1-1.73-.12c-10.32-5-21.34-4.25-32.24-3.67-3.65.2-7.32,1.65-10.82,3-2.77,1-5.28,1.45-8,.14-3.22-1.52-6.81-1.8-10.17-3.07a67.69,67.69,0,0,1-18.13-10.44,52,52,0,0,1-12.27-14.42c-.89-1.49-.42-1.75.82-2.64C106.55,246.62,110.66,247.19,114.67,247.05Z"/><path class="cls-2" d="M186.58,173.37c0,2.49,0,5,0,7.48-.09,3.64-2.74,6.51-6.62,7.3-1.75.35-6.15-2.09-7.23-4a11.73,11.73,0,0,1-1.73-6.53c.15-3.39-.16-6.8.09-10.17.44-6.14,3.52-9,9.35-8.55,3.72.3,6,2.66,6.13,6.36.06,2.69,0,5.39,0,8.08Z"/><path class="cls-2" d="M162,173.21c0,2.39.1,4.79,0,7.18-.2,4.29-2.4,6.15-6.65,6.44a6.75,6.75,0,0,1-7.2-6.34c0-5,0-10,0-15,0-3.36,3.54-6.42,7.39-6.13s6.18,2.31,6.46,6.33c0,.2,0,.4,0,.6v6.89Z"/></svg>