<svg id="Warstwa_1" data-name="Warstwa 1" xmlns="http://www.w3.org/2000/svg" viewBox="0 0 337 334.88"><defs><style>.cls-1{fill:#fb681b;}.cls-2{fill:#fefcfb;}</style></defs><title>recycle-symbols</title><path class="cls-1" d="M168.66,0h164C337,0,337,0,337,4.47V330.35c0,4.53,0,4.53-4.67,4.53H4.64c-4.64,0-4.64,0-4.64-4.55V4.45C0,0,0,0,4.37,0Zm91.92,91c-.09-5.14.13-10.16-1.82-15.28-4.9-12.87-15.5-20.62-28.07-21.3-15-.8-30-2.46-45.07-2.77-13.64-.28-27.2-2.32-40.89-2.38-4.94,0-9.87-1-14.83-1.42-7.18-.56-14.41-.7-21.2,2.1-1.89.79-4.13.89-5.69,2.24a66.85,66.85,0,0,0-7.49,7.27c-2.18,2.59-4.61,5-5.76,8.43-3.06,9-1.56,18.5-2.93,27.7a99.15,99.15,0,0,0-1,13.07c-.16,11.53-1.31,23-2.23,34.5-.52,6.38,0,12.82-.77,19.14-1.18,9.91-1.72,19.84-2.08,29.8-.42,11.84-2.19,23.58-2.26,35.46-.07,11.25-2.08,22.4-2.1,33.68a57.8,57.8,0,0,1-.9,12.21c-1.07,5,1.69,8.67,6.61,9.81,1.72.4,2.19,1.37,2.08,3-.17,2.53.19,4.94,2.22,6.78,2.53,2.29,10.28,3.22,13,1.22,1.8-1.31,4-2.75,3.7-5.51-.35-3.36,1.48-3.82,4.19-3.63,9.32.66,18.64,1.49,28,1.8,15.44.5,30.77,2.52,46.22,2.91,3.38.09,6.8.35,10.14.33,5.08,0,9.67,2.14,14.75,2.13,10.56,0,21.15-.22,31.68,1.17,5,.66,7.34-.9,9.77-5.2a8.8,8.8,0,0,0,1.14-4.53c0-3.79.17-7.59.29-11.38.36-11.55,2.15-23,2.23-34.56a78.21,78.21,0,0,1,.34-10.17,165.89,165.89,0,0,0,1.85-23.2c0-10.38,1.38-20.63,2.06-30.95s.65-20.42,2-30.61c1.16-8.55.6-17.29,1.33-25.95S260.91,99.69,260.58,91Z"/><path class="cls-2" d="M260.58,91c.33,8.69-.73,17.31-1.45,25.93s-.17,17.4-1.33,25.95c-1.37,10.19-1.35,20.41-2,30.61s-2.08,20.57-2.06,30.95a165.89,165.89,0,0,1-1.85,23.2,78.21,78.21,0,0,0-.34,10.17c-.08,11.56-1.87,23-2.23,34.56-.12,3.79-.26,7.59-.29,11.38a8.8,8.8,0,0,1-1.14,4.53c-2.43,4.3-4.8,5.86-9.77,5.2-10.53-1.39-21.12-1.18-31.68-1.17-5.08,0-9.67-2.16-14.75-2.13-3.34,0-6.76-.24-10.14-.33-15.45-.39-30.78-2.41-46.22-2.91-9.33-.31-18.65-1.14-28-1.8-2.71-.19-4.54.27-4.19,3.63.3,2.76-1.9,4.2-3.7,5.51-2.75,2-10.5,1.07-13-1.22-2-1.84-2.39-4.25-2.22-6.78.11-1.65-.36-2.62-2.08-3-4.92-1.14-7.68-4.83-6.61-9.81a57.8,57.8,0,0,0,.9-12.21c0-11.28,2-22.43,2.1-33.68.07-11.88,1.84-23.62,2.26-35.46.36-10,.9-19.89,2.08-29.8.76-6.32.25-12.76.77-19.14.92-11.48,2.07-23,2.23-34.5a99.15,99.15,0,0,1,1-13.07c1.37-9.2-.13-18.68,2.93-27.7,1.15-3.39,3.58-5.84,5.76-8.43A66.85,66.85,0,0,1,103,52.19c1.56-1.35,3.8-1.45,5.69-2.24,6.79-2.8,14-2.66,21.2-2.1,5,.39,9.89,1.41,14.83,1.42,13.69.06,27.25,2.1,40.89,2.38,15.07.31,30,2,45.07,2.77,12.57.68,23.17,8.43,28.07,21.3C260.71,80.84,260.49,85.86,260.58,91ZM111.12,89.6h-5.7A2.17,2.17,0,0,0,103,92c.18,9-1.59,17.83-1.9,26.77-.28,8.37-.3,16.74-1.35,25.07-1,8.13-.85,16.33-1.29,24.5-.61,11.32-2,22.6-2.22,34-.15,6.46-.74,12.92-1.37,19.36-.77,8-.84,15.93-1.1,23.9-.06,2.06,1,3.09,3.08,3.22,3.58.21,7.16.73,10.74.71,9.88-.06,19.71.82,29.53,1.61,5.08.41,10.15.57,15.22.88,1.62.1,3.08-.22,3.26-2.21.29-3.17.86-6.31,1.2-9.47.71-6.77.58-13.56.87-20.33.39-8.67,2.14-17.21,2-25.91a223.14,223.14,0,0,1,1.52-26.24c1.11-11,.65-22.12,2.11-33.11.61-4.63.75-9.33.9-14,.25-7.77.63-15.51,1.42-23.24.32-3.13-1.32-4.62-4.36-4.77-5.18-.25-10.35-.7-15.53-.69C134.11,92,122.68,90,111.12,89.6Zm61.55,152.22q0,3.44,0,6.89c0,4.57.52,5.09,5.15,5.22.8,0,1.6,0,2.4,0a245.73,245.73,0,0,1,29.23,1.5c7.27.74,14.52.63,21.77,1.13,1.73.11,3-.44,3-2.44.1-5.88,1.48-11.71,1.53-17.5.13-14,2.2-27.84,2.41-41.78.18-11.69,1.86-23.24,2.2-34.9.27-9.26.74-18.52,1.73-27.73,1.11-10.21.45-20.53,1.82-30.72a2.43,2.43,0,0,0-2.47-3c-6.63-.39-13.16-1.75-19.82-1.83a196.47,196.47,0,0,1-19.73-.72c-3.45-.38-7,.07-10.35-1-2.56-.83-5.14-.45-7.72-.51-1.34,0-2,.78-2,2.11.08,7.79-1.47,15.45-1.87,23.19-.59,11.54-1.16,23-2.16,34.58-1.07,12.25-1,24.59-2.36,36.88-1,8.86-.54,17.88-1.39,26.83C173.33,225.87,172.46,233.83,172.67,241.82Zm-50.16-179c-6.39.83-12.23,2.33-15.73,8.34-.37.65-1.43,1-1,2s1.57,1.08,2.58,1.07c8.39-.06,16.7,1,25,1.7,12.41,1,24.87,1,37.29,2.25,11.58,1.13,23.28,1,34.91,2.07,11.78,1.14,23.68.84,35.46,2.35,2,.26,3-.44,2.22-2.7-1.72-5.13-7.8-8.82-13.52-9.87-4.06-.74-8.16-.45-12.24-.73-10.92-.75-21.83-1.77-32.77-2.05-10.48-.27-20.84-1.72-31.3-2.13S132.69,64.71,122.51,62.84ZM223.1,276.26c2.59,0,5.18.06,7.77,0,.73,0,1.64-.41,1.56-1.46a1.34,1.34,0,0,0-1.38-1.32c-3.15.21-6-1.32-9.14-1.31-14.43.05-28.78-1.29-43.16-2.29-9.4-.66-18.8-1.21-28.2-2.11-11.82-1.14-23.78-.05-35.65-2.1-6.51-1.13-13.34.05-20-.65-.9-.09-2,0-2.12,1.14s.85,1.39,1.78,1.47c8.57.77,17,2.82,25.73,2.17,1.09-.08,2.19.1,3.29.05,9.06-.37,17.91,2,27,2a161.16,161.16,0,0,1,17,.55c8.19.86,16.34,2,24.6,1.75,1,0,2,.07,3,.09C204.51,274.4,213.75,276.06,223.1,276.26Z"/><path class="cls-1" d="M111.12,89.6c11.56.38,23,2.42,34.58,2.42,5.18,0,10.35.44,15.53.69,3,.15,4.68,1.64,4.36,4.77-.79,7.73-1.17,15.47-1.42,23.24-.15,4.67-.29,9.37-.9,14-1.46,11-1,22.09-2.11,33.11a223.14,223.14,0,0,0-1.52,26.24c.15,8.7-1.6,17.24-2,25.91-.29,6.77-.16,13.56-.87,20.33-.34,3.16-.91,6.3-1.2,9.47-.18,2-1.64,2.31-3.26,2.21-5.07-.31-10.14-.47-15.22-.88-9.82-.79-19.65-1.67-29.53-1.61-3.58,0-7.16-.5-10.74-.71-2.06-.13-3.14-1.16-3.08-3.22.26-8,.33-15.94,1.1-23.9.63-6.44,1.22-12.9,1.37-19.36.25-11.37,1.61-22.65,2.22-34,.44-8.17.28-16.37,1.29-24.5,1-8.33,1.07-16.7,1.35-25.07.31-8.94,2.08-17.78,1.9-26.77a2.17,2.17,0,0,1,2.44-2.4Zm46.3,84.55c0-2.67,0-4.77,0-6.87a6.05,6.05,0,0,0-5.36-5.67c-4.62-.39-6.22,1.34-7.76,6.17-1.39,4.38-.79,9.13-.55,13.69.14,2.54,2.26,4.32,4.6,5a6.41,6.41,0,0,0,7-2C158.23,181.15,157.07,177.25,157.42,174.15Z"/><path class="cls-1" d="M172.67,241.82c-.21-8,.66-15.95,1.42-23.86.85-9,.39-18,1.39-26.83,1.39-12.29,1.29-24.63,2.36-36.88,1-11.53,1.57-23,2.16-34.58.4-7.74,1.95-15.4,1.87-23.19,0-1.33.63-2.13,2-2.11,2.58.06,5.16-.32,7.72.51,3.35,1.08,6.9.63,10.35,1a196.47,196.47,0,0,0,19.73.72c6.66.08,13.19,1.44,19.82,1.83a2.43,2.43,0,0,1,2.47,3c-1.37,10.19-.71,20.51-1.82,30.72-1,9.21-1.46,18.47-1.73,27.73-.34,11.66-2,23.21-2.2,34.9-.21,13.94-2.28,27.79-2.41,41.78-.05,5.79-1.43,11.62-1.53,17.5,0,2-1.28,2.55-3,2.44-7.25-.5-14.5-.39-21.77-1.13a245.73,245.73,0,0,0-29.23-1.5c-.8,0-1.6,0-2.4,0-4.63-.13-5.14-.65-5.15-5.22Q172.66,245.26,172.67,241.82Zm6.88-65.27h0c0,2.49,0,5,0,7.47-.07,2.94,1.73,4.37,4.24,4.9,3.35.71,6.65-.93,7.42-3.45,1.5-4.9,2.53-9.88,2.05-15.05a7.71,7.71,0,0,0-3.67-6.1c-4.76-2.61-9.9.8-10,6.26C179.53,172.57,179.55,174.56,179.55,176.55Z"/><path class="cls-1" d="M122.51,62.84c10.18,1.87,20.58,1.87,30.93,2.27s20.82,1.86,31.3,2.13c10.94.28,21.85,1.3,32.77,2.05,4.08.28,8.18,0,12.24.73,5.72,1,11.8,4.74,13.52,9.87.75,2.26-.21,3-2.22,2.7-11.78-1.51-23.68-1.21-35.46-2.35-11.63-1.12-23.33-.94-34.91-2.07-12.42-1.21-24.88-1.29-37.29-2.25-8.34-.65-16.65-1.76-25-1.7-1,0-2.1,0-2.58-1.07s.64-1.32,1-2C110.28,65.17,116.12,63.67,122.51,62.84Z"/><path class="cls-1" d="M223.1,276.26c-9.35-.2-18.59-1.86-27.95-2.05-1,0-2-.12-3-.09-8.26.29-16.41-.89-24.6-1.75a161.16,161.16,0,0,0-17-.55c-9,0-17.89-2.38-27-2-1.1.05-2.2-.13-3.29-.05-8.7.65-17.16-1.4-25.73-2.17-.93-.08-1.94-.25-1.78-1.47S94,264.89,94.89,265c6.67.7,13.5-.48,20,.65,11.87,2.05,23.83,1,35.65,2.1,9.4.9,18.8,1.45,28.2,2.11,14.38,1,28.73,2.34,43.16,2.29,3.12,0,6,1.52,9.14,1.31a1.34,1.34,0,0,1,1.38,1.32c.08,1.05-.83,1.43-1.56,1.46C228.28,276.32,225.69,276.26,223.1,276.26Z"/><path class="cls-2" d="M157.42,174.15c-.35,3.1.81,7-2,10.29a6.41,6.41,0,0,1-7,2c-2.34-.67-4.46-2.45-4.6-5-.24-4.56-.84-9.31.55-13.69,1.54-4.83,3.14-6.56,7.76-6.17a6.05,6.05,0,0,1,5.36,5.67C157.46,169.38,157.42,171.48,157.42,174.15Z"/><path class="cls-2" d="M179.55,176.55c0-2,0-4,0-6,.08-5.46,5.22-8.87,10-6.26a7.71,7.71,0,0,1,3.67,6.1c.48,5.17-.55,10.15-2.05,15.05-.77,2.52-4.07,4.16-7.42,3.45-2.51-.53-4.31-2-4.24-4.9.05-2.49,0-5,0-7.47Z"/></svg>