<svg id="Warstwa_1" data-name="Warstwa 1" xmlns="http://www.w3.org/2000/svg" viewBox="0 0 337 332.65"><defs><style>.cls-1{fill:#feb71a;}.cls-2{fill:#fefdfa;}</style></defs><title>recycle-symbols</title><path class="cls-1" d="M168.85,0H332.56C337,0,337,0,337,4.39V328.23c0,4.41,0,4.42-4.41,4.42H4.58C0,332.65,0,332.64,0,328V4.72C0,0,0,0,4.85,0ZM158.49,205.93c0-18.35.07-36.7,0-55.06,0-6.66-2.31-12.56-7.66-16.84a16.2,16.2,0,0,1-4.88-6.54c-1.12-2.73-1.43-6.15.13-8.61a45,45,0,0,1,6.38-7.66A19.75,19.75,0,0,0,158.53,98c.3-6.18-1.34-11.76-4-17.28a31.31,31.31,0,0,0-17.47-16.15c-1.86-.73-2.79-1.73-2.91-3.59a7.4,7.4,0,0,1,1.41-4.72c2.59-3.78.86-9.42-3-9.48-11-.15-22-.08-33,0-2,0-5.66,4.25-4.81,5.79,1,1.72,1.25,3.68,2.48,5.32a4.23,4.23,0,0,1-1.77,6.59A29.44,29.44,0,0,0,81,75.57c-2.55,3.53-5.47,7.26-5.23,12.16a2.35,2.35,0,0,1-.48,1.37,10.92,10.92,0,0,0-1.47,8.24c.93,5.83,2.89,11.2,7.82,15.22a18.49,18.49,0,0,1,5.21,7.33c1.85,4.72-.56,10.76-4.78,13.91A18.78,18.78,0,0,0,74.31,149c-.28,37.89-.15,75.79-.13,113.68a18.9,18.9,0,0,0,2.23,8.44c4,7.7,11,11.6,19.62,11.76,13.29.24,26.59.25,39.88-.05a25.27,25.27,0,0,0,12.23-3.22c7.13-4.08,10.13-10.42,10.25-18C158.68,243,158.48,224.48,158.49,205.93Zm65.69,76.56c9.46-.76,21.17,1.23,32.77-1.06,3.11-.62,5.6-2.3,5.15-5.34-.55-3.69,1.3-5.78,3.62-7.85a15.55,15.55,0,0,0,5.47-12c.06-29.26.13-58.52-.05-87.78a20.19,20.19,0,0,0-7.41-15.86c-2.56-2.1-3-4-2-6.91,1.15-3.3,0-5.83-3.31-7.09a2.86,2.86,0,0,1-2.11-3.36,16.69,16.69,0,0,0-1-6.89c-3.36-9.71-16.59-13.53-24.34-5.2-2.76,3-5.49,6-8,9.12-3.18,4-6.49,6.7-12.32,6.17-7.57-.69-15.26-.22-22.89-.14-4.59.06-7.06,3.77-5.27,7.8,1.09,2.46,1,4.31-1.46,6.13-6.3,4.66-8.56,11.68-8.65,18.94-.31,27.37-.16,54.75-.09,82.13,0,6.29,2.08,11.92,7.14,16a5.11,5.11,0,0,1,2.1,5.59c-.5,2.79,1.84,6.13,4.45,6.46,4.48.56,8.9,1.46,13.5,1.29C206.93,282.29,214.48,282.49,224.18,282.49Z"/><path class="cls-2" d="M158.49,205.93c0,18.55.19,37.11-.1,55.65-.12,7.59-3.12,13.93-10.25,18a25.27,25.27,0,0,1-12.23,3.22c-13.29.3-26.59.29-39.88.05-8.63-.16-15.59-4.06-19.62-11.76a18.9,18.9,0,0,1-2.23-8.44c0-37.89-.15-75.79.13-113.68A18.78,18.78,0,0,1,82,133.8c4.22-3.15,6.63-9.19,4.78-13.91a18.49,18.49,0,0,0-5.21-7.33c-4.93-4-6.89-9.39-7.82-15.22a10.92,10.92,0,0,1,1.47-8.24,2.35,2.35,0,0,0,.48-1.37c-.24-4.9,2.68-8.63,5.23-12.16A29.44,29.44,0,0,1,95.46,64.44a4.23,4.23,0,0,0,1.77-6.59c-1.23-1.64-1.53-3.6-2.48-5.32-.85-1.54,2.81-5.78,4.81-5.79,11-.07,22-.14,33,0,3.84.06,5.57,5.7,3,9.48A7.4,7.4,0,0,0,134.16,61c.12,1.86,1.05,2.86,2.91,3.59a31.31,31.31,0,0,1,17.47,16.15c2.65,5.52,4.29,11.1,4,17.28a19.75,19.75,0,0,1-6.11,13.25,45,45,0,0,0-6.38,7.66c-1.56,2.46-1.25,5.88-.13,8.61a16.2,16.2,0,0,0,4.88,6.54c5.35,4.28,7.62,10.18,7.66,16.84C158.56,169.23,158.49,187.58,158.49,205.93Zm-70.89.27q0,27.08,0,54.15c0,5.55,3.55,9.14,9.08,9.15,13,0,26,.08,39,0,5.58-.05,8.92-2.8,8.9-8.89q-.21-54,0-108A12.2,12.2,0,0,0,140,142.48a22.81,22.81,0,0,1-7.81-14.23c-1.46-10.09,1.46-18.88,9.59-25.7a8.43,8.43,0,0,0,3.32-7.86c-1.36-8.56-7.74-17.81-17.87-19.15A7.24,7.24,0,0,1,120.79,68c0-2,0-4,0-6,0-1.71-.8-2.41-2.56-2.52-6.68-.39-6.87-.26-6.88,6.39a6.76,6.76,0,0,0,0,1.19c.75,4-2.31,6-4.39,8.51-1.15,1.39-2.81.25-4.2.56a8.79,8.79,0,0,0-1.74.26c-7.23,3.34-11.55,9.17-13.28,16.73a9,9,0,0,0,3.14,9.35,30.11,30.11,0,0,1,3.23,3.35c5,5.57,6.57,12.14,6.18,19.47a24.23,24.23,0,0,1-8,17.21A13.45,13.45,0,0,0,87.62,153Q87.56,179.58,87.6,206.2Z"/><path class="cls-2" d="M224.18,282.49c-9.7,0-17.25-.2-24.77.08-4.6.17-9-.73-13.5-1.29-2.61-.33-4.95-3.67-4.45-6.46a5.11,5.11,0,0,0-2.1-5.59c-5.06-4-7.12-9.66-7.14-16-.07-27.38-.22-54.76.09-82.13.09-7.26,2.35-14.28,8.65-18.94,2.46-1.82,2.55-3.67,1.46-6.13-1.79-4,.68-7.74,5.27-7.8,7.63-.08,15.32-.55,22.89.14,5.83.53,9.14-2.15,12.32-6.17,2.52-3.16,5.25-6.16,8-9.12,7.75-8.33,21-4.51,24.34,5.2a16.69,16.69,0,0,1,1,6.89,2.86,2.86,0,0,0,2.11,3.36c3.26,1.26,4.46,3.79,3.31,7.09-1,2.89-.54,4.81,2,6.91a20.19,20.19,0,0,1,7.41,15.86c.18,29.26.11,58.52.05,87.78a15.55,15.55,0,0,1-5.47,12c-2.32,2.07-4.17,4.16-3.62,7.85.45,3-2,4.72-5.15,5.34C245.35,283.72,233.64,281.73,224.18,282.49Zm-38.36-71.21c0,13.78.15,27.57-.1,41.34-.07,4.13,1.66,6.78,4.69,9,1.48,1.06,3,2.18,3.58,3.84.89,2.72,2.77,3.4,5.23,3.4q23.06,0,46.1,0c1.71,0,3.34-.4,4.12-1.89,1.6-3.09,4.35-5.1,6.58-7.59,1.32-1.48,2.62-2.91,2.61-5.11q0-42,0-83.89c0-2.77-.92-5.69-2.69-7.28a56.22,56.22,0,0,1-9.7-10.64,3.73,3.73,0,0,0-3.53-1.67q-20.52.06-41.05,0a5.12,5.12,0,0,0-4.82,2.84,24.25,24.25,0,0,1-6.35,7.27,11.18,11.18,0,0,0-4.71,9.65C185.94,184.11,185.82,197.69,185.82,211.28Zm54.32-77.95a5.8,5.8,0,0,0-3.35,3.62,1.12,1.12,0,0,0,1.43,1.37,4.1,4.1,0,0,0,3.34-3.34C241.71,134.11,241.4,133.4,240.14,133.33Z"/><path class="cls-1" d="M87.6,206.2q0-26.62,0-53.25a13.45,13.45,0,0,1,4.68-10.4,24.23,24.23,0,0,0,8-17.21c.39-7.33-1.23-13.9-6.18-19.47a30.11,30.11,0,0,0-3.23-3.35,9,9,0,0,1-3.14-9.35c1.73-7.56,6.05-13.39,13.28-16.73a8.79,8.79,0,0,1,1.74-.26c1.39-.31,3,.83,4.2-.56,2.08-2.5,5.14-4.53,4.39-8.51a6.76,6.76,0,0,1,0-1.19c0-6.65.2-6.78,6.88-6.39,1.76.11,2.56.81,2.56,2.52,0,2,0,4,0,6a7.24,7.24,0,0,0,6.46,7.54c10.13,1.34,16.51,10.59,17.87,19.15a8.43,8.43,0,0,1-3.32,7.86c-8.13,6.82-11.05,15.61-9.59,25.7A22.81,22.81,0,0,0,140,142.48a12.2,12.2,0,0,1,4.51,10.11q-.1,54,0,108c0,6.09-3.32,8.84-8.9,8.89-13,.1-26,0-39,0-5.53,0-9.08-3.6-9.08-9.15Q87.58,233.28,87.6,206.2Zm16.58,7.16c0-13.29,0-26.58,0-39.87,0-2.64-1.12-4.7-3.45-5.64-3-1.21-6.8,0-8.22,2.32-1,1.67-.94,3.6-.94,5.48v75.27c0,.69,0,1.39,0,2.08.3,4,2.88,6.63,6.32,6.37a6.58,6.58,0,0,0,6.35-6.74C104,239.54,104.18,226.45,104.18,213.36ZM91.49,96.53c.14,1.27.18,2.56.44,3.82.82,4,6.2,5.85,9.44,3.39s2.84-5.93,3.32-9.15a6.29,6.29,0,0,1,4.37-5.1c4.07-1.62,4.7-2.14,4.71-6s-1-5.56-4.79-6.44a10.28,10.28,0,0,0-7.59,1.48C95.12,82.74,91.15,88.51,91.49,96.53ZM109.29,125c-3.55-.07-6.13,2.24-6.3,6.35a13.51,13.51,0,0,1-2.67,7.4,38.27,38.27,0,0,1-4.1,4.26c-2.39,2.44-3,5.28-1.21,7.11,2.84,2.83,5.83,4.61,9.09,2.55,7.47-4.73,10.75-11.87,11.79-20.23A6.61,6.61,0,0,0,109.29,125Z"/><path class="cls-1" d="M185.82,211.28c0-13.59.12-27.17-.07-40.75a11.18,11.18,0,0,1,4.71-9.65,24.25,24.25,0,0,0,6.35-7.27,5.12,5.12,0,0,1,4.82-2.84q20.52.09,41.05,0a3.73,3.73,0,0,1,3.53,1.67,56.22,56.22,0,0,0,9.7,10.64c1.77,1.59,2.69,4.51,2.69,7.28q0,41.94,0,83.89c0,2.2-1.29,3.63-2.61,5.11-2.23,2.49-5,4.5-6.58,7.59-.78,1.49-2.41,1.89-4.12,1.89q-23,0-46.1,0c-2.46,0-4.34-.68-5.23-3.4-.54-1.66-2.1-2.78-3.58-3.84-3-2.18-4.76-4.83-4.69-9C186,238.85,185.82,225.06,185.82,211.28ZM192.53,222q0,17.85,0,35.7a5.7,5.7,0,0,0,3.71,5.77c4.75,1.86,8.83-.87,9-6.08.15-5.65,0-11.3,0-16.95q0-26.34,0-52.66c0-2.72-.55-5.16-2.82-6.81-.74-.54-1.95-.38-1.85-1.83s1.23-1.72,2.16-2.18a13.78,13.78,0,0,0,5.45-4.71,39.53,39.53,0,0,0,4.13-8.66c2-5.22,1.84-6.81-2.66-9.84-3-2-8-.28-8.36,3.29-.43,4.18-2.33,7.09-5.38,9.76s-2.06,7.78,1.6,9.55c.69.34,1.57.49,1.64,1.5s-.91,1.14-1.58,1.48c-3.83,2-5.29,4.92-5.17,9.35C192.72,199.79,192.53,210.9,192.53,222Z"/><path class="cls-1" d="M240.14,133.33c1.26.07,1.57.78,1.42,1.65a4.1,4.1,0,0,1-3.34,3.34,1.12,1.12,0,0,1-1.43-1.37A5.8,5.8,0,0,1,240.14,133.33Z"/><path class="cls-2" d="M104.18,213.36c0,13.09-.15,26.18.1,39.27a6.58,6.58,0,0,1-6.35,6.74c-3.44.26-6-2.36-6.32-6.37,0-.69,0-1.39,0-2.08V175.65c0-1.88-.09-3.81.94-5.48,1.42-2.3,5.21-3.53,8.22-2.32,2.33.94,3.46,3,3.45,5.64C104.16,186.78,104.18,200.07,104.18,213.36Z"/><path class="cls-2" d="M91.49,96.53c-.34-8,3.63-13.79,9.9-18A10.28,10.28,0,0,1,109,77.09c3.75.88,4.79,2.61,4.79,6.44s-.64,4.34-4.71,6a6.29,6.29,0,0,0-4.37,5.1c-.48,3.22-.17,6.76-3.32,9.15s-8.62.64-9.44-3.39C91.67,99.09,91.63,97.8,91.49,96.53Z"/><path class="cls-2" d="M109.29,125a6.61,6.61,0,0,1,6.6,7.44c-1,8.36-4.32,15.5-11.79,20.23-3.26,2.06-6.25.28-9.09-2.55-1.84-1.83-1.18-4.67,1.21-7.11a38.27,38.27,0,0,0,4.1-4.26,13.51,13.51,0,0,0,2.67-7.4C103.16,127.28,105.74,125,109.29,125Z"/><path class="cls-2" d="M192.53,222c0-11.11.19-22.22-.1-33.32-.12-4.43,1.34-7.39,5.17-9.35.67-.34,1.65-.38,1.58-1.48s-1-1.16-1.64-1.5c-3.66-1.77-4.67-6.86-1.6-9.55s4.95-5.58,5.38-9.76c.36-3.57,5.36-5.31,8.36-3.29,4.5,3,4.67,4.62,2.66,9.84a39.53,39.53,0,0,1-4.13,8.66,13.78,13.78,0,0,1-5.45,4.71c-.93.46-2,.78-2.16,2.18s1.11,1.29,1.85,1.83c2.27,1.65,2.83,4.09,2.82,6.81q0,26.33,0,52.66c0,5.65.11,11.3,0,16.95-.14,5.21-4.22,7.94-9,6.08a5.7,5.7,0,0,1-3.71-5.77Q192.55,239.86,192.53,222Z"/></svg>