<svg xmlns="http://www.w3.org/2000/svg" width="23" height="23" viewBox="0 0 23 23"><g transform="translate(-109 -772)"><g transform="translate(109 772)" fill="#fff" stroke="#0e415e" stroke-width="1"><path d="M2,0h8a0,0,0,0,1,0,0V10a0,0,0,0,1,0,0H0a0,0,0,0,1,0,0V2A2,2,0,0,1,2,0Z" stroke="none"/><path d="M2,.5H9a.5.5,0,0,1,.5.5V9a.5.5,0,0,1-.5.5H1A.5.5,0,0,1,.5,9V2A1.5,1.5,0,0,1,2,.5Z" fill="none"/></g><rect width="6" height="6" rx="1" transform="translate(111 774)" fill="#0e415e"/><g transform="translate(0 13)"><g transform="translate(109 772)" fill="#fff" stroke="#0e415e" stroke-width="1"><path d="M0,0H10a0,0,0,0,1,0,0V10a0,0,0,0,1,0,0H2A2,2,0,0,1,0,8V0A0,0,0,0,1,0,0Z" stroke="none"/><path d="M1,.5H9a.5.5,0,0,1,.5.5V9a.5.5,0,0,1-.5.5H2A1.5,1.5,0,0,1,.5,8V1A.5.5,0,0,1,1,.5Z" fill="none"/></g><rect width="6" height="6" rx="1" transform="translate(111 774)" fill="#0e415e"/></g><g transform="translate(13)"><g transform="translate(109 772)" fill="#fff" stroke="#0e415e" stroke-width="1"><path d="M0,0H8a2,2,0,0,1,2,2v8a0,0,0,0,1,0,0H0a0,0,0,0,1,0,0V0A0,0,0,0,1,0,0Z" stroke="none"/><path d="M1,.5H8A1.5,1.5,0,0,1,9.5,2V9a.5.5,0,0,1-.5.5H1A.5.5,0,0,1,.5,9V1A.5.5,0,0,1,1,.5Z" fill="none"/></g><rect width="6" height="6" rx="1" transform="translate(111 774)" fill="#0e415e"/></g><g transform="translate(13 13)"><rect width="2" height="2" transform="translate(109 772)" fill="#0e415e"/><rect width="2" height="2" transform="translate(112 772)" fill="#0e415e"/><rect width="2" height="2" transform="translate(111 775)" fill="#0e415e"/><rect width="2" height="2" transform="translate(110 778)" fill="#0e415e"/><rect width="2" height="2" transform="translate(113 779)" fill="#0e415e"/><rect width="2" height="2" transform="translate(115 776)" fill="#0e415e"/><rect width="2" height="2" transform="translate(117 778)" fill="#0e415e"/><rect width="2" height="2" transform="translate(117 780)" fill="#0e415e"/><rect width="2" height="2" transform="translate(114 772)" fill="#0e415e"/><rect width="2" height="2" transform="translate(117 772)" fill="#0e415e"/></g></g></svg>