<svg xmlns="http://www.w3.org/2000/svg" width="25.129" height="26.666" viewBox="0 0 25.129 26.666"><g transform="translate(-3.435 -2.667)"><path d="M16,21.333A5.333,5.333,0,1,0,10.667,16,5.339,5.339,0,0,0,16,21.333Zm0-8A2.667,2.667,0,1,1,13.333,16,2.7,2.7,0,0,1,16,13.333ZM3.793,21.515l1.334,2.306a2.742,2.742,0,0,0,3.64.974l.7-.408A10.8,10.8,0,0,0,12,25.869v.8a2.67,2.67,0,0,0,2.667,2.666h2.666A2.67,2.67,0,0,0,20,26.667v-.8a10.829,10.829,0,0,0,2.528-1.481l.7.408a2.743,2.743,0,0,0,3.642-.975l1.332-2.305a2.668,2.668,0,0,0-.975-3.643l-.673-.389a10.29,10.29,0,0,0,0-2.965l.673-.39a2.669,2.669,0,0,0,.975-3.642L26.875,8.18A2.739,2.739,0,0,0,23.233,7.2l-.7.408A10.8,10.8,0,0,0,20,6.131v-.8a2.67,2.67,0,0,0-2.667-2.666H14.667A2.67,2.67,0,0,0,12,5.333v.8A10.829,10.829,0,0,0,9.472,7.612l-.7-.408a2.741,2.741,0,0,0-3.642.976L3.793,10.485a2.668,2.668,0,0,0,.975,3.643l.673.39a10.244,10.244,0,0,0,0,2.963l-.673.39a2.67,2.67,0,0,0-.975,3.644Zm4.435-3.678a7.53,7.53,0,0,1,0-3.674A1.332,1.332,0,0,0,7.6,12.685l-1.5-.866,1.33-2.306L8.96,10.4a1.33,1.33,0,0,0,1.584-.19,8.1,8.1,0,0,1,3.179-1.865,1.333,1.333,0,0,0,.944-1.274V5.333h2.666V7.067a1.332,1.332,0,0,0,.944,1.274,8.11,8.11,0,0,1,3.179,1.866,1.333,1.333,0,0,0,1.584.189l1.525-.881,1.335,2.3-1.5.865a1.336,1.336,0,0,0-.627,1.478,7.53,7.53,0,0,1,0,3.674,1.335,1.335,0,0,0,.628,1.478l1.5.865-1.33,2.305L23.041,21.6a1.328,1.328,0,0,0-1.584.19,8.1,8.1,0,0,1-3.179,1.865,1.333,1.333,0,0,0-.944,1.274l0,1.734h-2.67V24.933a1.331,1.331,0,0,0-.943-1.274,8.11,8.11,0,0,1-3.179-1.866,1.33,1.33,0,0,0-1.584-.188l-1.525.883L6.1,20.183l1.5-.868a1.336,1.336,0,0,0,.628-1.478Z" fill="#0e415e"/></g></svg>