<svg id="Warstwa_1" data-name="Warstwa 1" xmlns="http://www.w3.org/2000/svg" viewBox="0 0 337 336.4"><defs><style>.cls-1{fill:#0b72ce;}.cls-2{fill:#fcfcfd;}</style></defs><title>recycle-symbols</title><path class="cls-1" d="M168.37,336.4H4.39c-4.39,0-4.39,0-4.39-4.5V3.91C0-.57,0-.58,4.4-.58H332.68c4.32,0,4.32,0,4.32,4.21V332.21c0,4.18,0,4.18-4.34,4.18Zm-3.47-55.88h74c.9,0,1.8,0,2.7,0,1.78-.08,2.74-.9,2.67-2.83-.08-2.49,0-5,0-7.49V191.61a7.94,7.94,0,0,1,2.46-6.34c4.86-4.75,7.8-10.37,7.49-17.67-.44-10.38-.42-20.8,0-31.18.67-18.87-1.62-37.77,1.22-56.65.81-5.37,1.22-11.19-1.15-16.75-1.77-4.16-5.12-7.47-9.71-7.48q-42.72-.06-85.44,0a5.06,5.06,0,0,0-3.86,1.28c-2.34,2.3-4.76,4.52-7.15,6.78-7,6.6-13.55,13.57-20.55,20.15-11.51,10.81-22.68,22-34,33-1.44,1.4-1.64,3.09-1.64,4.94,0,13.49,0,27,0,40.48a4.55,4.55,0,0,1-1.9,3.95,24,24,0,0,0-9,18.91c-.07,28.19,0,56.37,0,84.55,0,6.85,3.85,11.23,11,11.11C116.33,280.27,140.62,280.52,164.9,280.52Z"/><path class="cls-2" d="M164.9,280.52c-24.28,0-48.57-.25-72.85.15-7.2.12-11.06-4.26-11-11.11,0-28.18,0-56.36,0-84.55a24,24,0,0,1,9-18.91,4.55,4.55,0,0,0,1.9-3.95c0-13.5,0-27,0-40.48,0-1.85.2-3.54,1.64-4.94,11.32-11,22.49-22.19,34-33,7-6.58,13.59-13.55,20.55-20.15,2.39-2.26,4.81-4.48,7.15-6.78a5.06,5.06,0,0,1,3.86-1.28q42.72,0,85.44,0c4.59,0,7.94,3.32,9.71,7.48,2.37,5.56,2,11.38,1.15,16.75-2.84,18.88-.55,37.78-1.22,56.65-.38,10.38-.4,20.8,0,31.18.31,7.3-2.63,12.92-7.49,17.67a7.94,7.94,0,0,0-2.46,6.34v78.55c0,2.5-.06,5,0,7.49.07,1.93-.89,2.75-2.67,2.83-.9,0-1.8,0-2.7,0Zm-2.25-16.27H222.9c3.95,0,4,0,4-4,0-22.38.18-44.77-.1-67.14-.1-8.09,2.62-14.57,7.76-20.57a13.28,13.28,0,0,0,3.59-8.75c-.09-28.77-.05-57.54-.05-86.32,0-4,0-4-3.95-4h-59c-4.36,0-4.45.09-4.45,4.61V126.3c0,4.53-.69,5.22-5.18,5.22H114.79c-4.77,0-4.58.06-4.86,4.9-.61,10.45,1.59,21-1.71,31.38a26.72,26.72,0,0,1-5.12,9.54,17.33,17.33,0,0,0-4.49,11.91c.1,23.67,0,47.35,0,71,0,4,0,4,4,4ZM137.4,114.4v0c4.3,0,8.59-.05,12.88,0,2.17,0,3.05-.87,3-3-.05-8.18,0-16.37,0-24.55,0-1,.25-2.12-.94-2.61s-1.79.53-2.51,1.17c-9.35,8.25-17.58,17.63-26.84,26-.63.57-1.67,1-1.13,2.12s1.5.87,2.37.88C128.62,114.42,133,114.4,137.4,114.4Z"/><path class="cls-1" d="M162.65,264.25H102.71c-4,0-4,0-4-4,0-23.68,0-47.36,0-71a17.33,17.33,0,0,1,4.49-11.91,26.72,26.72,0,0,0,5.12-9.54c3.3-10.38,1.1-20.93,1.71-31.38.28-4.84.09-4.89,4.86-4.9h50.65c4.49,0,5.17-.69,5.18-5.22V78.05c0-4.52.09-4.61,4.45-4.61h59c3.94,0,3.95,0,3.95,4,0,28.78,0,57.55.05,86.32a13.28,13.28,0,0,1-3.59,8.75c-5.14,6-7.86,12.48-7.76,20.57.28,22.37.1,44.76.1,67.14,0,4,0,4-4,4Z"/><path class="cls-1" d="M137.4,114.4c-4.39,0-8.78,0-13.17,0-.87,0-1.88.14-2.37-.88s.5-1.55,1.13-2.12c9.26-8.34,17.49-17.72,26.84-26,.72-.64,1.32-1.67,2.51-1.17s.94,1.64.94,2.61c0,8.18,0,16.37,0,24.55,0,2.17-.86,3.08-3,3-4.29-.07-8.58,0-12.88,0Z"/></svg>