<svg xmlns="http://www.w3.org/2000/svg" viewBox="0 0 301.8 314"><defs><style>.a{fill:none;stroke-width:20px;}.a,.b{stroke:#000;}.b{stroke-width:5.67px;}</style></defs><title>CEN_recycling_aluminium</title><path class="a" d="M32.1,231.4A139.9,139.9,0,0,1,151,17.5c36.9,0,71,13,95.4,37.6" transform="translate(-1 -1.2)"/><polygon points="191.5 71.7 191.6 50.3 242 50.5 242.2 0 263.5 0.1 263.4 71.9 191.5 71.7"/><path class="a" d="M271.7,84.8a140.1,140.1,0,0,1-118.9,214c-36.9,0-71-13-95.5-37.6" transform="translate(-1 -1.2)"/><polygon points="110.3 242.2 110.2 263.6 59.8 263.5 59.6 314 38.2 313.9 38.4 242 110.3 242.2"/><path class="b" d="M52.1,144.3c-.1-10.3,5.7-26.2,33.3-26.2,12.6,0,31.5,3.4,31.1,26.4l-.8,36.1c-.2,6.2,0,9.6,8.1,9.3v9.5a20.5,20.5,0,0,1-6.1.6c-7.6,0-12.5-1.2-14-11.4-5.4,9.9-16.2,13.9-26.8,13.9-16.3,0-27.5-7.1-27.5-23.6,0-13.4,6.9-22,38.3-24.7,11.4-1,15.2-.7,15.2-10.8,0-3.6-.3-15.7-17.5-15.7-5,0-20.8.3-20.3,16.6Zm50.8,15.1c-4.1,3.2-8.6,2.6-17.2,3.8-12,1.9-22.3,2.8-22.3,15.3,0,9,6.3,14.4,15,14.4,10.7,0,23.1-5,24.2-26.9Z" transform="translate(-1 -1.2)"/><path class="b" d="M156.4,91.7V199.4H142.8V91.7Z" transform="translate(-1 -1.2)"/><path class="b" d="M234.1,199.4V188.3h-.3c-7.8,13.7-23.7,14.2-26.5,14.2-23,0-25.7-17.7-25.7-29.4V121.2h13.6v47.9c0,19.7,6.8,23.8,16.4,23.8,22.8,0,22.5-23.5,22.5-29.1V121.2h13.5v78.2Z" transform="translate(-1 -1.2)"/></svg>