<svg xmlns="http://www.w3.org/2000/svg" viewBox="0 0 588.1 710.7"><title>Recycling-Code-90</title><path d="M77.9,297.1l-32-18.3,111.6-65.5-24.7-15c6.1-10,11.9-19.7,17.7-29.4C177,124.8,203.7,80.8,230,36.6a58.8,58.8,0,0,1,15.6-17.3C265.8,4.7,287.8-3.8,313.1,1.7c19.6,4.3,35.2,14.7,45.6,32.6,22.5,38.6,45.4,76.9,68.1,115.3l3.1,4.9L463.2,135V264.1L351.6,200.6l32.1-18.9c-.9-1.5-1.6-2.8-2.3-4.1L313.5,62.8c-5.1-8.5-12.1-11.3-21.6-8.2s-14.6,6.8-19.3,14.6c-30.1,50.7-60.7,101.1-91.1,151.6-.9,1.6-1.9,3.1-3,4.9L158,213.6v129l-33.4-18.9L122,328,56.4,443.6c-5,8.8-4,16,3.5,22.8s13.4,9.2,22.4,9.3c59.3.7,118.7,1.8,178,2.8l4.5.2v53.1h-5.9L70.4,528.6a22.7,22.7,0,0,1-4.5-.3c-28.6-4.4-58.4-32.2-64.2-60.5-3.5-16.9-1.8-33.2,7.1-48.7,22.4-38.8,44.3-77.9,66.4-116.9C76.1,300.7,76.9,299.1,77.9,297.1Z"/><path d="M377.8,438.1v38.3h5.1l131.5-1.3c12.7-.2,18.6-5.7,20.1-18.5a31,31,0,0,0-4-20.1c-28.8-51.2-57.3-102.6-85.9-153.9-.9-1.6-1.7-3.2-2.8-5.4l46.3-25.8a45,45,0,0,1,2.5,4.1L582.3,420c4.5,8,5.3,16.8,5.7,25.6,1.2,27.1-5.9,51-28.1,68.3-12.1,9.4-25.8,14.7-41.6,14.7-45.1.1-90.3.7-135.4,1.1l-5,.3v37.6L265.8,503.9Z"/><path d="M269.5,707.7v-114c13.6,0,26.8-.3,40.1.1,8.5.2,17.3.3,25.5,2.5,14.1,3.9,22.7,14.6,27.1,28.1,5.8,17.8,6.2,35.9,0,53.7s-17.6,28.3-36.1,29.4S288.7,707.7,269.5,707.7Zm23.2-95.5v77.5c9,0,17.7.8,26.2-.2,12.9-1.5,18.2-4.4,22-17.3s3.3-25.1,1.2-37.7-10.1-19.8-19.4-20.7S302.9,612.7,292.7,612.2Z"/><path d="M573.1,638.5v19.1H515.7v32h63.4v18.7H492.6V593.9h84.3v18.7H515.6v25.9Z"/><path d="M385.7,593.7c17.9,0,35.6-.4,53.2.1,11.8.3,22.6,3.9,29.1,15.1s7.7,24.8,1.9,37.1-15.5,18.2-28.9,18.7l-32.5,1.5v42.1H385.7Zm22.6,53.4c9.7-.5,18.8-.8,27.8-1.5,7.4-.5,13.7-7.2,14.2-14.6s-4.4-16.2-12-17.1c-9.8-1.2-19.7-1.2-29.8-1.7-.1,1.8-.2,2.6-.2,3.4Z"/><path d="M218.2,345.1l19-2.2c3.4,4.3,5.7,8.7,9.2,11.1,6.3,4.2,15.7,1.2,18.8-5.8,2.5-5.5,3.5-11.7,5.1-17.7a54.6,54.6,0,0,0,.9-6.7c-6.3,5-12.6,8.9-20.8,8.9-16.3.1-29.5-11.5-33-27.5-2.3-10.2-1.6-20.3,3-29.8,9.5-19.3,34.1-25.8,52.1-14,10.7,6.9,16,17.3,17.6,29.3a187.9,187.9,0,0,1,2,32.6c-.6,12-2.5,24.1-9.8,34.4-12.5,17.6-37,21-52.7,9.5C222.5,362,219.9,353.8,218.2,345.1Zm51.1-49.3c.6-5.8-1.4-11.4-5.1-16.4s-8-6.5-13.3-5.6-8.9,3.5-10.7,8.8a36.5,36.5,0,0,0,.1,24.4,13.7,13.7,0,0,0,17.6,8.8C265.9,313.2,269.3,307.4,269.3,295.8Z"/><path d="M381.6,311.8c-.6,17.4-1.6,31.4-8.1,44.7-9.3,18.8-34.7,21.9-49.9,10.9-9.6-6.9-14.1-16.9-15.2-28.3s-2.3-22.1-1.9-33.1c.7-13.8,2.4-27.7,11.7-39.1,5.5-6.8,12.8-10.1,21-11.1,10.4-1.3,20.1,1.3,27.8,8.4s10.6,15.7,12.2,25.1S381,306.3,381.6,311.8Zm-22.7,6.7c-.7-12.1-1-20.2-1.7-28.3-.2-2.4-1.2-4.7-1.9-7-2-6.2-6.2-9.5-11.5-9.5s-9.7,2.8-11.4,9.6a99.4,99.4,0,0,0-2.9,20.3,262.1,262.1,0,0,0,1.1,34.3c.5,5.2,2.5,11.3,6,15,5.4,5.7,16.3,3.6,18.5-6.6S358,325.2,358.9,318.5Z"/><path d="M106.3,626.4c-6.9,1.5-13.4,2.9-19.9,4.1-.8.1-2.3-1.2-2.7-2.1-4.5-12.5-14-17.2-26.5-16.7S37,617.7,33,628.6c-5.8,16-5.9,32.3,1.4,47.8,5.2,11.1,15.3,14.7,27,14.2,9.4-.3,18.5-7.5,21.9-17.1q1.2-3.3,2.4-6.9l19.7,6.7a11.2,11.2,0,0,1,1.8,1c-3.7,11.9-9.1,22.6-20.4,29.3s-23.1,8.1-35.9,6.4c-10.6-1.4-19.8-5.4-27.4-12.7-9.7-9.2-14.6-20.6-16.3-33.8s-.9-26.8,4-39.6c6.9-17.9,20-28,38.8-31.3a54,54,0,0,1,30.8,3C94.6,601.2,102.4,611.9,106.3,626.4Z"/><path d="M171.7,594.9h22.5v94.6H252v18.9H171.7Z"/><path d="M114.9,710.7c9.1-39.6,18-78.5,26.9-117.8h17.6c-5,21.2-10,42.2-14.8,63.3-3.9,17-7.5,34-11.4,50.9-.3,1.4-2,3.3-3.2,3.4C125.2,710.9,120.4,710.7,114.9,710.7Z"/></svg>