<svg xmlns="http://www.w3.org/2000/svg" viewBox="0 0 588.1 710.7"><title>Recycling-Code-90</title><path d="M77.9,297.1l-32-18.3,111.6-65.5-24.7-15c6.1-10,11.9-19.7,17.7-29.4C177,124.8,203.7,80.8,230,36.6a58.8,58.8,0,0,1,15.6-17.3C265.8,4.7,287.8-3.8,313.1,1.7c19.6,4.3,35.2,14.7,45.6,32.6,22.5,38.6,45.4,76.9,68.1,115.3l3.1,4.9L463.2,135V264.1L351.6,200.6l32.1-18.9c-.9-1.5-1.6-2.8-2.3-4.1L313.5,62.8c-5.1-8.5-12.1-11.3-21.6-8.2s-14.6,6.8-19.3,14.6c-30.1,50.7-60.7,101.1-91.1,151.6-.9,1.6-1.9,3.1-3,4.9L158,213.6v129l-33.4-18.9L122,328,56.4,443.6c-5,8.8-4,16,3.5,22.8s13.4,9.2,22.4,9.3c59.3.7,118.7,1.8,178,2.8l4.5.2v53.1h-5.9L70.4,528.6a22.7,22.7,0,0,1-4.5-.3c-28.6-4.4-58.4-32.2-64.2-60.5-3.5-16.9-1.8-33.2,7.1-48.7,22.4-38.8,44.3-77.9,66.4-116.9C76.1,300.7,76.9,299.1,77.9,297.1Z"/><path d="M377.8,438.1v38.3h5.1l131.5-1.3c12.7-.2,18.6-5.7,20.1-18.5a31,31,0,0,0-4-20.1c-28.8-51.2-57.3-102.6-85.9-153.9-.9-1.6-1.7-3.2-2.8-5.4l46.3-25.8a45,45,0,0,1,2.5,4.1L582.3,420c4.5,8,5.3,16.8,5.7,25.6,1.2,27.1-5.9,51-28.1,68.3-12.1,9.4-25.8,14.7-41.6,14.7-45.1.1-90.3.7-135.4,1.1l-5,.3v37.6L265.8,503.9Z"/><path d="M218.2,345.1l19-2.2c3.4,4.3,5.7,8.7,9.2,11.1,6.3,4.2,15.7,1.2,18.8-5.8,2.5-5.5,3.5-11.7,5.1-17.7a54.6,54.6,0,0,0,.9-6.7c-6.3,5-12.6,8.9-20.8,8.9-16.3.1-29.5-11.5-33-27.5-2.3-10.2-1.6-20.3,3-29.8,9.5-19.3,34.1-25.8,52.1-14,10.7,6.9,16,17.3,17.6,29.3a187.9,187.9,0,0,1,2,32.6c-.6,12-2.5,24.1-9.8,34.4-12.5,17.6-37,21-52.7,9.5C222.5,362,219.9,353.8,218.2,345.1Zm51.1-49.3c.6-5.8-1.4-11.4-5.1-16.4s-8-6.5-13.3-5.6-8.9,3.5-10.7,8.8a36.5,36.5,0,0,0,.1,24.4,13.7,13.7,0,0,0,17.6,8.8C265.9,313.2,269.3,307.4,269.3,295.8Z"/><path d="M381.6,311.8c-.6,17.4-1.6,31.4-8.1,44.7-9.3,18.8-34.7,21.9-49.9,10.9-9.6-6.9-14.1-16.9-15.2-28.3s-2.3-22.1-1.9-33.1c.7-13.8,2.4-27.7,11.7-39.1,5.5-6.8,12.8-10.1,21-11.1,10.4-1.3,20.1,1.3,27.8,8.4s10.6,15.7,12.2,25.1S381,306.3,381.6,311.8Zm-22.7,6.7c-.7-12.1-1-20.2-1.7-28.3-.2-2.4-1.2-4.7-1.9-7-2-6.2-6.2-9.5-11.5-9.5s-9.7,2.8-11.4,9.6a99.4,99.4,0,0,0-2.9,20.3,262.1,262.1,0,0,0,1.1,34.3c.5,5.2,2.5,11.3,6,15,5.4,5.7,16.3,3.6,18.5-6.6S358,325.2,358.9,318.5Z"/></svg>