<svg xmlns="http://www.w3.org/2000/svg" viewBox="0 0 77 100.3"><defs><style>.a{fill:none;stroke:#000;stroke-linejoin:round;stroke-width:7px;}.b{isolation:isolate;font-size:22px;font-family:Arial-BoldMT, Arial;font-weight:700;}</style></defs><title>Recycling-Code-51</title><path class="a" d="M20.4,27.9,33.6,6s5.3-5.1,9.9-.5L55.8,26.3" transform="translate(0 -0.1)"/><text class="b" transform="translate(26.7 49.6)">51</text><text class="b" transform="translate(16.3 92)">FOR</text><path class="a" d="M34.7,66.4,9.2,66s-7.1-2-5.4-8.4l11.9-21" transform="translate(0 -0.1)"/><path class="a" d="M60.9,34.8,73.3,57.1s1.8,7.1-4.5,8.8l-24.1.3" transform="translate(0 -0.1)"/><path d="M34.9,66.2l14.6-8.6v17Z" transform="translate(0 -0.1)"/><path d="M6.1,36.7,20.7,28V45Z" transform="translate(0 -0.1)"/><path d="M46.1,26.4l14.6-8.7V34.8Z" transform="translate(0 -0.1)"/></svg>