<svg xmlns="http://www.w3.org/2000/svg" viewBox="0 0 77 100.3"><defs><style>.a{fill:none;stroke:#000;stroke-linejoin:round;stroke-width:7px;}.b,.c{isolation:isolate;}.c{font-size:22px;font-family:Arial-BoldMT, Arial;font-weight:700;}.d{letter-spacing:-0.02em;}</style></defs><title>Recycling-Code-70</title><path class="a" d="M31.6,31.5,44.8,9.6s5.3-5.1,9.9-.5L67,29.9" transform="translate(-11.2 -3.6)"/><g class="b"><text class="c" transform="translate(26.7 49.5)">70</text></g><g class="b"><text class="c" transform="translate(24.8 92.1)">G<tspan class="d" x="17.1" y="0">L</tspan></text></g><path class="a" d="M45.9,70l-25.5-.4s-7.1-2-5.4-8.4l11.9-21" transform="translate(-11.2 -3.6)"/><path class="a" d="M72.1,38.4,84.5,60.7s1.8,7.1-4.5,8.8l-24.1.3" transform="translate(-11.2 -3.6)"/><path d="M46.1,69.8l14.6-8.6v17Z" transform="translate(-11.2 -3.6)"/><path d="M17.3,40.3l14.6-8.7v17Z" transform="translate(-11.2 -3.6)"/><path d="M57.3,30l14.6-8.7V38.4Z" transform="translate(-11.2 -3.6)"/></svg>