<svg xmlns="http://www.w3.org/2000/svg" width="15.101" height="15.989" viewBox="0 0 15.101 15.989"><defs><style>.a{fill:#0e415e;}</style></defs><g transform="translate(-3 -3)"><path class="a" d="M3,10.994a2.657,2.657,0,0,0,4.485,1.936l5.322,3.041a2.537,2.537,0,0,0-.036.352,2.683,2.683,0,1,0,.845-1.936L8.294,11.347a2.563,2.563,0,0,0,.036-.353,2.563,2.563,0,0,0-.036-.353L13.616,7.6a2.658,2.658,0,1,0-.845-1.936,2.564,2.564,0,0,0,.036.353L7.485,9.058A2.657,2.657,0,0,0,3,10.994Z" transform="translate(0)"/></g></svg>