<svg id="Warstwa_1" data-name="Warstwa 1" xmlns="http://www.w3.org/2000/svg" viewBox="0 0 337 336.98"><defs><style>.cls-1{fill:#242121;}.cls-2{fill:#fcfcfc;}</style></defs><title>recycle-symbols</title><path class="cls-1" d="M168.46,0H332.71C337,0,337,0,337,4.26V332.77c0,4.2,0,4.2-4.35,4.2H4.14C0,337,0,337,0,332.86V4.05C0,0,0,0,4.2,0Zm-.88,291.6c11.79.14,22.2-.66,32.63-1.47,10.11-.78,20.13-1.48,29.8-4.75,1.22-.42,2.66.26,3.72-.74,2-1.89,4.8-2.21,7.16-3.34a66.21,66.21,0,0,0,11.4-7.38c2.9-2.23,4.5-5.68,6.86-8.39a24.6,24.6,0,0,0,5.44-12.21c2.05-12.1.77-24.22-1.74-36.2a2.66,2.66,0,0,0-.47-1.09c-2.66-3.28-2.12-7.63-3.65-11.37a83,83,0,0,1-3.19-9.56,27.61,27.61,0,0,0-2.14-6.49c-2.4-4.23-3.84-8.85-5.86-13.22-.75-1.61-2-2.91-2.45-4.69-1-4.24-3.45-7.84-5.52-11.54-1.86-3.33-4-6.6-5.69-10-2.94-5.75-6.87-10.83-10.16-16.33-2.48-4.17-5.43-8.07-8.28-12-2.65-3.66-5.31-7.33-8.21-10.79-3.41-4.08-7.07-8-10.65-11.89-1.42-1.57-2-3.42-.93-5.2,1-1.61,1.8-3.28,2.74-4.89C204,78.5,209.72,69,215.29,59.41a10,10,0,0,0,1.27-6.66c-.69-4.09-3.46-5.63-7.29-6.31-6.69-1.19-10.83.47-14.13,5.89a8.36,8.36,0,0,1-7.49,4.18A8.27,8.27,0,0,1,180,52.14a10.1,10.1,0,0,0-7.12-5.68c-5.7-1.3-10.92.43-14.2,5.21-2.4,3.48-5.36,5.5-9.85,4.53A9.83,9.83,0,0,1,142,50.63a7.09,7.09,0,0,0-4.74-3.74,20.56,20.56,0,0,0-8-.51c-6.19.74-7.88,2.81-8.07,8.22-.11,3.1,1.6,5.35,2.92,7.68,5.5,9.65,11.3,19.12,16.93,28.7,2.63,4.49,2.37,4.5-1,8.55-5.42,6.62-10.83,13.26-15.79,20.21A386.88,386.88,0,0,0,102,154.56c-4.59,8.15-8.28,16.72-12.48,25-2.77,5.49-3.68,11.62-6.63,17a43.16,43.16,0,0,0-2.33,6.09c-1.07,2.91-1.58,6-2.62,8.86-2.57,7.14-4,14.59-5.18,22a44.42,44.42,0,0,0,5.83,31.28,40.32,40.32,0,0,0,10.56,11.54c4.23,3.1,9,5.16,13.91,7.23,7.21,3.09,14.86,4.18,22.37,5.82,5.21,1.13,10.72,1,16,1.25C150.57,291.14,159.71,292.42,167.58,291.6Z"/><path class="cls-2" d="M167.58,291.6c-7.87.82-17-.46-26.14-.93-5.33-.27-10.84-.12-16-1.25-7.51-1.64-15.16-2.73-22.37-5.82-4.86-2.07-9.68-4.13-13.91-7.23a40.32,40.32,0,0,1-10.56-11.54,44.42,44.42,0,0,1-5.83-31.28c1.23-7.42,2.61-14.87,5.18-22,1-2.89,1.55-5.95,2.62-8.86a43.16,43.16,0,0,1,2.33-6.09c3-5.37,3.86-11.5,6.63-17,4.2-8.32,7.89-16.89,12.48-25a386.88,386.88,0,0,1,22.34-34.82c5-6.95,10.37-13.59,15.79-20.21,3.33-4,3.59-4.06,1-8.55-5.63-9.58-11.43-19-16.93-28.7-1.32-2.33-3-4.58-2.92-7.68.19-5.41,1.88-7.48,8.07-8.22a20.56,20.56,0,0,1,8,.51A7.09,7.09,0,0,1,142,50.63a9.83,9.83,0,0,0,6.79,5.57c4.49,1,7.45-1.05,9.85-4.53,3.28-4.78,8.5-6.51,14.2-5.21A10.1,10.1,0,0,1,180,52.14a8.27,8.27,0,0,0,7.66,4.37,8.36,8.36,0,0,0,7.49-4.18c3.3-5.42,7.44-7.08,14.13-5.89,3.83.68,6.6,2.22,7.29,6.31a10,10,0,0,1-1.27,6.66C209.72,69,204,78.5,198.39,88.09c-.94,1.61-1.77,3.28-2.74,4.89-1.08,1.78-.49,3.63.93,5.2,3.58,3.93,7.24,7.81,10.65,11.89,2.9,3.46,5.56,7.13,8.21,10.79,2.85,3.94,5.8,7.84,8.28,12,3.29,5.5,7.22,10.58,10.16,16.33,1.72,3.36,3.83,6.63,5.69,10,2.07,3.7,4.53,7.3,5.52,11.54.41,1.78,1.7,3.08,2.45,4.69,2,4.37,3.46,9,5.86,13.22a27.61,27.61,0,0,1,2.14,6.49,83,83,0,0,0,3.19,9.56c1.53,3.74,1,8.09,3.65,11.37a2.66,2.66,0,0,1,.47,1.09c2.51,12,3.79,24.1,1.74,36.2a24.6,24.6,0,0,1-5.44,12.21c-2.36,2.71-4,6.16-6.86,8.39a66.21,66.21,0,0,1-11.4,7.38c-2.36,1.13-5.15,1.45-7.16,3.34-1.06,1-2.5.32-3.72.74-9.67,3.27-19.69,4-29.8,4.75C189.78,290.94,179.37,291.74,167.58,291.6Zm2.95-16.13c7.4.79,16.71-.79,26.08-.83a61.46,61.46,0,0,0,12.22-.83c9.3-1.91,18.77-3.35,27.15-8.46,7.09-4.33,12-10.18,13.37-18.39,1.49-8.75-.61-17.28-2.78-25.67-1.54-5.93-3.54-11.76-5.47-17.6-2.31-7-5.19-13.72-8.12-20.43a245.28,245.28,0,0,0-14.67-27.88c-5-8.36-10.3-16.5-16-24.41-.51-.71-1-1.78-2-1.19s-.54,1.64-.29,2.44c.86,2.75,1.87,5.46,2.89,8.14a107.49,107.49,0,0,1,5.63,23.12,138.2,138.2,0,0,1,.26,32.84c-.66,6.77-2.22,8.65-8.71,10-3.33.71-5.86-.77-6.92-4.05a12.17,12.17,0,0,1-.27-5.93,79.9,79.9,0,0,0,1-13.7,101.38,101.38,0,0,0-2.13-22.85,139.54,139.54,0,0,0-5.8-20,150.88,150.88,0,0,0-15-29.05c-1.47-2.16-3.18-2.31-4.65-.13-2.17,3.2-4.06,6.61-6.34,9.73-2.75,3.76-4.3,8.07-6.31,12.18-1.13,2.31-.84,4.83-1.76,7.15a55.48,55.48,0,0,0-3.56,16.83c-.34,5.28.4,10.55.54,15.83.13,4.73-2.64,6.94-7.32,7.17-5.12.26-7.61-3.3-8.32-8.68a80.48,80.48,0,0,1,0-20.63c.67-5.18,1.42-10.44,3.54-15.34a6.05,6.05,0,0,0,.26-2.34c0-.58-.07-1.28-.86-1.36-.59-.07-.8.49-1.07.89-6.62,10-14.1,19.38-19.16,30.35-2.67,5.77-6.22,11.08-9,16.87-3.67,7.78-7.19,15.61-10.08,23.66-3.26,9.06-6.35,18.25-7.77,27.82-.66,4.48-2.47,8.91-1.46,13.57.5,2.28,1.21,4.52,1.77,6.8a19.62,19.62,0,0,0,5.85,9.94c3.41,3.11,7.72,4.9,11.71,7.18,7.08,4.06,15,4.31,22.49,5.61,8.86,1.52,18,1.22,27.09,1.6C160.54,275.61,164.55,275.47,170.53,275.47ZM167.45,89.74c2.16,0,4.07.13,5.94,0,3.91-.32,7.22-1.41,8.92-5.63,1.25-3.09,3.27-5.88,5-8.76.5-.83,1.61-1.51,1.12-2.57-.55-1.23-1.89-1-2.94-.88a18.08,18.08,0,0,1-14-5.34c-1.51-1.43-2.35-1.48-4-.28-4.49,3.35-9.18,6.39-15.23,5.63a5.47,5.47,0,0,0-1.49.15c-1.48.22-2.19.61-1.07,2.28a46.6,46.6,0,0,1,4.79,8.19C157,88.66,160.64,92.2,167.45,89.74Z"/><path class="cls-1" d="M170.53,275.47c-6,0-10,.14-14,0-9-.38-18.23-.08-27.09-1.6-7.52-1.3-15.41-1.55-22.49-5.61-4-2.28-8.3-4.07-11.71-7.18a19.62,19.62,0,0,1-5.85-9.94c-.56-2.28-1.27-4.52-1.77-6.8-1-4.66.8-9.09,1.46-13.57,1.42-9.57,4.51-18.76,7.77-27.82,2.89-8.05,6.41-15.88,10.08-23.66,2.73-5.79,6.28-11.1,9-16.87,5.06-11,12.54-20.39,19.16-30.35.27-.4.48-1,1.07-.89.79.08.86.78.86,1.36a6.05,6.05,0,0,1-.26,2.34c-2.12,4.9-2.87,10.16-3.54,15.34a80.48,80.48,0,0,0,0,20.63c.71,5.38,3.2,8.94,8.32,8.68,4.68-.23,7.45-2.44,7.32-7.17-.14-5.28-.88-10.55-.54-15.83a55.48,55.48,0,0,1,3.56-16.83c.92-2.32.63-4.84,1.76-7.15,2-4.11,3.56-8.42,6.31-12.18,2.28-3.12,4.17-6.53,6.34-9.73,1.47-2.18,3.18-2,4.65.13a150.88,150.88,0,0,1,15,29.05,139.54,139.54,0,0,1,5.8,20,101.38,101.38,0,0,1,2.13,22.85,79.9,79.9,0,0,1-1,13.7,12.17,12.17,0,0,0,.27,5.93c1.06,3.28,3.59,4.76,6.92,4.05,6.49-1.39,8-3.27,8.71-10a138.2,138.2,0,0,0-.26-32.84,107.49,107.49,0,0,0-5.63-23.12c-1-2.68-2-5.39-2.89-8.14-.25-.8-.7-1.9.29-2.44s1.54.48,2,1.19c5.69,7.91,11,16.05,16,24.41A245.28,245.28,0,0,1,233,183.26c2.93,6.71,5.81,13.44,8.12,20.43,1.93,5.84,3.93,11.67,5.47,17.6,2.17,8.39,4.27,16.92,2.78,25.67C248,255.17,243.07,261,236,265.35c-8.38,5.11-17.85,6.55-27.15,8.46a61.46,61.46,0,0,1-12.22.83C187.24,274.68,177.93,276.26,170.53,275.47Z"/><path class="cls-1" d="M167.45,89.74c-6.81,2.46-10.46-1.08-12.94-7.24a46.6,46.6,0,0,0-4.79-8.19c-1.12-1.67-.41-2.06,1.07-2.28a5.47,5.47,0,0,1,1.49-.15c6.05.76,10.74-2.28,15.23-5.63,1.62-1.2,2.46-1.15,4,.28a18.08,18.08,0,0,0,14,5.34c1.05-.07,2.39-.35,2.94.88.49,1.06-.62,1.74-1.12,2.57-1.75,2.88-3.77,5.67-5,8.76-1.7,4.22-5,5.31-8.92,5.63C171.52,89.87,169.61,89.74,167.45,89.74Z"/></svg>