<svg id="Warstwa_1" data-name="Warstwa 1" xmlns="http://www.w3.org/2000/svg" viewBox="0 0 336.74 335.46"><defs><style>.cls-1{fill:#3caf2a;}.cls-2{fill:#f9fcf9;}</style></defs><title>recycle-symbols</title><path class="cls-1" d="M168.07,334.65q-82,0-164.08,0c-4.24,0-4.25,0-4.25-4.22V4C-.26,0-.25,0,3.83,0H332.6c4.14,0,4.14,0,4.14,4.08V330.42c0,4.23,0,4.23-4.28,4.23Q250.26,334.67,168.07,334.65ZM120.36,224.77q0,30.38,0,60.75c0,6.12,3,9.1,9.21,9.1h56.58c10.82,0,21.64,0,32.46,0,1.34,0,2.82.31,4-.72,2.65-2.36,4.33-5,4.32-8.88q-.15-59.4,0-118.82c0-5.49-2.69-9.85-4.8-14.49-1.64-3.6-4.2-6.86-5.44-10.57-1.55-4.63-3.86-8.91-5.45-13.52-.86-2.49-1.17-5.17-2.35-7.52-1.92-3.86-3-8-4.32-12.08-2.23-6.88-3.44-14.06-4.77-21.2-1.78-9.56-1.42-19.1-1.51-28.68a2.54,2.54,0,0,1,1.82-2.68,7.3,7.3,0,0,0,4.72-6.93c.12-2.88.12-5.76,0-8.64-.22-8-3-9.22-9-9.46-14.87-.59-29.78-.35-44.66-.12-6.7.1-8.67,2.54-8.72,9.25,0,2.38.3,4.81-.07,7.14-.67,4.23,1.2,7.11,4.45,9.23a4.72,4.72,0,0,1,2.26,4.71c-.28,5,0,10-.77,15.07-1.52,10-3.15,19.88-5.29,29.75-1.87,8.65-4.8,16.91-7.68,25.19-3,8.71-8.34,16.36-12.41,24.59-1.5,3-2.76,6-2.72,9.71C120.48,184.86,120.36,204.82,120.36,224.77Z"/><path class="cls-2" d="M120.36,224.77c0-20,.12-39.91-.1-59.86,0-3.68,1.22-6.69,2.72-9.71,4.07-8.23,9.37-15.88,12.41-24.59,2.88-8.28,5.81-16.54,7.68-25.19,2.14-9.87,3.77-19.78,5.29-29.75.78-5.07.49-10,.77-15.07a4.72,4.72,0,0,0-2.26-4.71c-3.25-2.12-5.12-5-4.45-9.23.37-2.33.05-4.76.07-7.14,0-6.71,2-9.15,8.72-9.25,14.88-.23,29.79-.47,44.66.12,6,.24,8.79,1.5,9,9.46.07,2.88.07,5.76,0,8.64a7.3,7.3,0,0,1-4.72,6.93,2.54,2.54,0,0,0-1.82,2.68c.09,9.58-.27,19.12,1.51,28.68,1.33,7.14,2.54,14.32,4.77,21.2,1.3,4,2.4,8.22,4.32,12.08,1.18,2.35,1.49,5,2.35,7.52,1.59,4.61,3.9,8.89,5.45,13.52,1.24,3.71,3.8,7,5.44,10.57,2.11,4.64,4.81,9,4.8,14.49q-.17,59.42,0,118.82c0,3.86-1.67,6.52-4.32,8.88-1.17,1-2.65.71-4,.72-10.82.05-21.64,0-32.46,0H129.58c-6.2,0-9.21-3-9.21-9.1Q120.35,255.15,120.36,224.77Zm15.14-4V275a18.88,18.88,0,0,0,0,2.38c.18,1.37.7,2.48,2.37,2.52a2.84,2.84,0,0,0,3.08-2.25,12.21,12.21,0,0,0,.1-3c0-32.85.12-65.7-.11-98.55,0-5.73,1.9-10.25,4.84-14.85,5-7.78,9-16,10.36-25.29.7-4.75,4.94-7.51,9.87-6.5,3.37.69,5.51,5,4.29,9.18-1.1,3.79-1.61,7.68-3.05,11.45a100.78,100.78,0,0,1-9.81,19.52,12.46,12.46,0,0,0-2.36,7.15q0,49.43,0,98.85c0,3.47.5,4,4,4,16.38,0,32.76-.06,49.13.06,2.9,0,3.84-.93,3.84-3.76q-.09-54.33,0-108.68a8.4,8.4,0,0,0-.87-4.31,203.67,203.67,0,0,1-10-20.38,219.3,219.3,0,0,1-11-32.52,98.3,98.3,0,0,1-2.35-9.77c-1-7-3.08-13.73-3.13-20.82a46.17,46.17,0,0,0-.77-7.68,50.74,50.74,0,0,1-.19-14.81c.35-3,.7-6.32,2.78-9,.58-.75,2-1.54,1.23-2.69-.6-1-1.94-.79-3-.79-7.44,0-14.88,0-22.33,0a11.11,11.11,0,0,0-2.63.36c-.83.22-1.14.72-.44,1.51,3.84,4.35,4,9.69,4,15.08a175.09,175.09,0,0,1-3.22,33.94c-1.85,9.52-4.39,18.87-7.07,28.18a111.23,111.23,0,0,1-4.57,12.75c-3.14,7.34-6.17,14.75-10.18,21.68-2.31,4-2.89,8.21-2.84,12.79C135.61,187.43,135.5,204.1,135.5,220.78Z"/><path class="cls-1" d="M135.5,220.78c0-16.68.11-33.35-.07-50-.05-4.58.53-8.82,2.84-12.79,4-6.93,7-14.34,10.18-21.68A111.23,111.23,0,0,0,153,123.54c2.68-9.31,5.22-18.66,7.07-28.18a175.09,175.09,0,0,0,3.22-33.94c0-5.39-.2-10.73-4-15.08-.7-.79-.39-1.29.44-1.51a11.11,11.11,0,0,1,2.63-.36c7.45,0,14.89,0,22.33,0,1.1,0,2.44-.16,3,.79.72,1.15-.65,1.94-1.23,2.69-2.08,2.66-2.43,6-2.78,9a50.74,50.74,0,0,0,.19,14.81,46.17,46.17,0,0,1,.77,7.68c.05,7.09,2.13,13.87,3.13,20.82a98.3,98.3,0,0,0,2.35,9.77,219.3,219.3,0,0,0,11,32.52,203.67,203.67,0,0,0,10,20.38,8.4,8.4,0,0,1,.87,4.31q0,54.35,0,108.68c0,2.83-.94,3.78-3.84,3.76-16.37-.12-32.75-.05-49.13-.06-3.46,0-4-.5-4-4q0-49.43,0-98.85a12.46,12.46,0,0,1,2.36-7.15,100.78,100.78,0,0,0,9.81-19.52c1.44-3.77,2-7.66,3.05-11.45,1.22-4.19-.92-8.49-4.29-9.18-4.93-1-9.17,1.75-9.87,6.5-1.35,9.29-5.4,17.51-10.36,25.29-2.94,4.6-4.88,9.12-4.84,14.85.23,32.85.11,65.7.11,98.55a12.21,12.21,0,0,1-.1,3,2.84,2.84,0,0,1-3.08,2.25c-1.67,0-2.19-1.15-2.37-2.52a18.88,18.88,0,0,1,0-2.38ZM178.43,104c.7-3.21-1.88-5.5-5.16-7.36-2.8-1.58-5.05.13-7.05,1.59-2.32,1.69-3.28,4.36-3.5,7.2A43.27,43.27,0,0,1,161,116.14c-1.48,4.47,1,9.09,6.6,9.75a7.7,7.7,0,0,0,8.45-7.49,12,12,0,0,1,.74-4.65C178.08,110.94,178.11,108,178.43,104Z"/><path class="cls-2" d="M178.43,104c-.32,4.05-.35,7-1.63,9.79a12,12,0,0,0-.74,4.65,7.7,7.7,0,0,1-8.45,7.49c-5.58-.66-8.08-5.28-6.6-9.75a43.27,43.27,0,0,0,1.71-10.75c.22-2.84,1.18-5.51,3.5-7.2,2-1.46,4.25-3.17,7.05-1.59C176.55,98.46,179.13,100.75,178.43,104Z"/></svg>