<svg id="Warstwa_1" data-name="Warstwa 1" xmlns="http://www.w3.org/2000/svg" viewBox="0 0 337 336.98"><defs><style>.cls-1{fill:#54595b;}.cls-2{fill:#fcfcfc;}</style></defs><title>recycle-symbols</title><path class="cls-1" d="M337,168.56V332.85c0,4.12,0,4.13-4.1,4.13H4.3C0,337,0,337,0,332.69V4.09C0,0,0,0,4.14,0H332.73C337,0,337,0,337,4.26Zm-247,13c-.19,13,.85,24.21,4.12,35.24,1.91,6.44,4.19,12.67,8,18.12,4.61,6.59,9.64,12.85,16,18A122.66,122.66,0,0,0,138.67,267a80.89,80.89,0,0,0,18.15,7.32,5.61,5.61,0,0,1,4.23,4.22,52.26,52.26,0,0,0,2.77,8.43A31.57,31.57,0,0,0,177.1,301c7,4,14.58,5,22.51,4.6,3.24-.16,5.6-1.54,6.92-4.28a9.08,9.08,0,0,0-1.54-9.7c-2.36-2.59-5.37-2.23-8.33-2.32-8-.23-14.56-2.77-18.15-10.6-1.29-2.82-.89-3.87,2.07-4.77a91.51,91.51,0,0,0,17.7-7.62c7.57-4.17,14.87-8.82,21.12-14.86,5.51-5.32,11.21-10.49,14.89-17.44,2.55-4.83,5.73-9.19,7-14.78,1.07-4.62,2.85-9.32,3.19-13.9.74-9.87,2.54-19.69,1.2-29.77-1.16-8.64-1.13-17.42-2.46-26.12a161.29,161.29,0,0,0-8-29.92c-2.73-7.65-6.38-15-9.95-22.29a174,174,0,0,0-16.92-28c-9.89-13.26-22.12-24.22-35-34.5-2.89-2.31-7.94-2.58-10.64-.34-5.58,4.63-11.15,9.3-16.44,14.25a157.64,157.64,0,0,0-26,31.27c-3.59,5.74-6.91,11.63-9.89,17.66q-5.53,11.15-9.95,22.86a133.75,133.75,0,0,0-7.6,27.85C91.1,159.8,89.2,171.38,90,181.52Z"/><path class="cls-2" d="M90,181.52c-.79-10.14,1.11-21.72,2.81-33.21a133.75,133.75,0,0,1,7.6-27.85q4.44-11.7,9.95-22.86c3-6,6.3-11.92,9.89-17.66a157.64,157.64,0,0,1,26.05-31.27c5.29-5,10.86-9.62,16.44-14.25,2.7-2.24,7.75-2,10.64.34,12.87,10.28,25.1,21.24,35,34.5a174,174,0,0,1,16.92,28c3.57,7.33,7.22,14.64,9.95,22.29a161.29,161.29,0,0,1,8,29.92c1.33,8.7,1.3,17.48,2.46,26.12,1.34,10.08-.46,19.9-1.2,29.77-.34,4.58-2.12,9.28-3.19,13.9-1.31,5.59-4.49,10-7,14.78-3.68,7-9.38,12.12-14.89,17.44-6.25,6-13.55,10.69-21.12,14.86a91.51,91.51,0,0,1-17.7,7.62c-3,.9-3.36,2-2.07,4.77,3.59,7.83,10.17,10.37,18.15,10.6,3,.09,6-.27,8.33,2.32a9.08,9.08,0,0,1,1.54,9.7c-1.32,2.74-3.68,4.12-6.92,4.28-7.93.4-15.55-.63-22.51-4.6A31.57,31.57,0,0,1,163.82,287a52.26,52.26,0,0,1-2.77-8.43,5.61,5.61,0,0,0-4.23-4.22A80.89,80.89,0,0,1,138.67,267a122.66,122.66,0,0,1-20.61-14.07c-6.32-5.19-11.35-11.45-16-18-3.8-5.45-6.08-11.68-8-18.12C90.84,205.73,89.8,194.52,90,181.52Zm139.44,3.64a191.14,191.14,0,0,0-4.07-39.94c-.72-3.42-1.7-6.75-2.54-10.12a107.57,107.57,0,0,0-5.58-15.7A214.41,214.41,0,0,0,207,98.3a168.88,168.88,0,0,0-10.54-16.91C189.22,71.31,180.26,62.77,171,54.57c-2.28-2-4.21-1.92-6.57.3-2.75,2.59-5.4,5.27-8.2,7.79A130.17,130.17,0,0,0,130.61,95c-4.67,8.12-8.34,16.77-12.19,25.32a124.09,124.09,0,0,0-10.07,37.61c-1.21,10.82-2.54,21.69-1.48,32.74.84,8.75,1.66,17.34,4.76,25.69,3.72,10.05,10.43,17.7,18.29,24.52a83.43,83.43,0,0,0,22.39,14c7.38,3.1,14.56,7.33,23,3.44,1.71-.79,3.51-1.36,5.29-2a82.42,82.42,0,0,0,20-10.58c4.9-3.48,8.37-8.36,12.75-12.31,7.33-6.63,11.16-15.18,13.43-24.43C228.81,200.57,230,191.94,229.43,185.16Z"/><path class="cls-1" d="M229.43,185.16c.56,6.78-.62,15.41-2.69,23.84-2.27,9.25-6.1,17.8-13.43,24.43-4.38,3.95-7.85,8.83-12.75,12.31a82.42,82.42,0,0,1-20,10.58c-1.78.64-3.58,1.21-5.29,2-8.43,3.89-15.61-.34-23-3.44a83.43,83.43,0,0,1-22.39-14c-7.86-6.82-14.57-14.47-18.29-24.52-3.1-8.35-3.92-16.94-4.76-25.69-1.06-11,.27-21.92,1.48-32.74a124.09,124.09,0,0,1,10.07-37.61c3.85-8.55,7.52-17.2,12.19-25.32a130.17,130.17,0,0,1,25.6-32.33c2.8-2.52,5.45-5.2,8.2-7.79,2.36-2.22,4.29-2.31,6.57-.3,9.28,8.2,18.24,16.74,25.51,26.82A168.88,168.88,0,0,1,207,98.3a214.41,214.41,0,0,1,10.21,21.1,107.57,107.57,0,0,1,5.58,15.7c.84,3.37,1.82,6.7,2.54,10.12A191.14,191.14,0,0,1,229.43,185.16ZM159.77,86.67c0,4.2.06,8.4,0,12.59,0,1.52.78,3.66-1,4.35-1.59.63-1.72-1.84-2.88-2.53a2.38,2.38,0,0,1-.42-.42c-2.68-2.79-8.75-3.34-11.54-1-3.19,2.61-3.86,8.28-1.31,11.69,4.62,6.16,9.36,12.24,13.91,18.45,1,1.4,2.72,2.51,2.73,4.52,0,6.19,0,12.39,0,18.58,0,.67.07,1.5-.8,1.74s-1.15-.64-1.56-1.13c-3.67-4.51-7.48-8.93-10.93-13.62s-7.64-6-12.63-3.25a9.11,9.11,0,0,0-2.4,13.53c3.63,4.28,7.13,8.66,10.63,13s6.77,9.13,10.89,13.17c5,4.9,8.59,10.56,7.14,18.24-.51,2.7,0,5.58-.1,8.38,0,1.23.64,3-.72,3.56-1.68.7-2.22-1.36-3-2.29-3.9-4.66-7.31-9.73-11.56-14.08-2.18-2.24-4.85-4.09-8.25-3.12a8.6,8.6,0,0,0-4.46,13.53c6.86,8.79,13.73,17.59,20.85,26.18,4.65,5.62,8.64,11.09,7.58,19.14-.62,4.7,6.08,8.43,10.53,6.68a8.61,8.61,0,0,0,5.52-5.26c1.11-2.8.76-5.47.93-8.21.11-1.81.13-3.66,1.62-5,3.24-2.79,5.69-6.26,8.35-9.53,6.22-7.66,12.33-15.39,18.75-22.89,1.77-2.07,3.06-4.94,2.4-7.68-.81-3.38-2.42-6.6-6.39-7.54-4.51-1.07-7.71,1.15-10.41,4.32-3.7,4.38-7.27,8.87-11,13.26-.51.6-.84,1.92-1.94,1.48s-.76-1.73-.77-2.67c0-5.29,0-10.59,0-15.88a5.74,5.74,0,0,1,1.5-4.07q4.92-5.7,9.6-11.6c5.07-6.34,9.53-13.16,15.08-19.14a12.54,12.54,0,0,0,3.73-7,8.44,8.44,0,0,0-4.59-8.61c-4-2.22-7-1.17-9.25,1.3-4.78,5.16-9,10.81-13.51,16.24-.59.71-.83,2.13-2.12,1.72s-1.35-1.8-1.35-3c0-5.8,0-11.59,0-17.39a7.5,7.5,0,0,1,2-4.87c5.23-6.38,10.49-12.73,15.65-19.16,2.39-3,2.19-6.47.75-9.65s-4.44-3.7-7.63-3.59a8.8,8.8,0,0,0-7.58,4.55c-.48.78-1.15,1.49-2.22,1.05-.9-.36-.92-1.22-.93-2s0-1.4,0-2.1c0-8.29,0-16.58,0-24.88,0-5.36-3.72-9.56-8.24-9.56-5.34,0-8.6,3.59-8.61,9.49C159.77,78.68,159.78,82.68,159.77,86.67Z"/><path class="cls-2" d="M159.78,86.67c0-4,0-8,0-12,0-5.9,3.27-9.5,8.61-9.49,4.52,0,8.2,4.2,8.24,9.56.05,8.3,0,16.59,0,24.88,0,.7,0,1.4,0,2.1s0,1.67.93,2c1.07.44,1.74-.27,2.22-1.05a8.8,8.8,0,0,1,7.58-4.55c3.19-.11,6.24.51,7.63,3.59s1.64,6.67-.75,9.65c-5.16,6.43-10.42,12.78-15.65,19.16a7.5,7.5,0,0,0-2,4.87c0,5.8,0,11.59,0,17.39,0,1.23,0,2.58,1.35,3s1.53-1,2.12-1.72c4.48-5.43,8.73-11.08,13.51-16.24,2.28-2.47,5.28-3.52,9.25-1.3a8.44,8.44,0,0,1,4.59,8.61,12.54,12.54,0,0,1-3.73,7c-5.55,6-10,12.8-15.08,19.14q-4.69,5.89-9.6,11.6a5.74,5.74,0,0,0-1.5,4.07c0,5.29,0,10.59,0,15.88,0,.94-.36,2.22.77,2.67s1.43-.88,1.94-1.48c3.69-4.39,7.26-8.88,11-13.26,2.7-3.17,5.9-5.39,10.41-4.32,4,.94,5.58,4.16,6.39,7.54.66,2.74-.63,5.61-2.4,7.68-6.42,7.5-12.53,15.23-18.75,22.89-2.66,3.27-5.11,6.74-8.35,9.53-1.49,1.29-1.51,3.14-1.62,5-.17,2.74.18,5.41-.93,8.21a8.61,8.61,0,0,1-5.52,5.26c-4.45,1.75-11.15-2-10.53-6.68,1.06-8.05-2.93-13.52-7.58-19.14-7.12-8.59-14-17.39-20.85-26.18A8.6,8.6,0,0,1,136,187c3.4-1,6.07.88,8.25,3.12,4.25,4.35,7.66,9.42,11.56,14.08.79.93,1.33,3,3,2.29,1.36-.56.68-2.33.72-3.56.08-2.8-.41-5.68.1-8.38,1.45-7.68-2.16-13.34-7.14-18.24-4.12-4-7.34-8.72-10.89-13.17s-7-8.76-10.63-13a9.11,9.11,0,0,1,2.4-13.53c5-2.74,9.13-1.5,12.63,3.25s7.26,9.11,10.93,13.62c.41.49.66,1.38,1.56,1.13s.8-1.07.8-1.74c0-6.19,0-12.39,0-18.58,0-2-1.71-3.12-2.73-4.52-4.55-6.21-9.29-12.29-13.91-18.45-2.55-3.41-1.88-9.08,1.31-11.69,2.79-2.29,8.86-1.74,11.54,1a2.38,2.38,0,0,0,.42.42c1.16.69,1.29,3.16,2.88,2.53,1.75-.69.93-2.83,1-4.35C159.83,95.07,159.77,90.87,159.78,86.67Z"/></svg>