<svg xmlns="http://www.w3.org/2000/svg" width="24" height="24" viewBox="0 0 24 24"><g transform="translate(-4 -4)"><path d="M5.333,17.333h8A1.333,1.333,0,0,0,14.667,16V5.333A1.333,1.333,0,0,0,13.333,4h-8A1.333,1.333,0,0,0,4,5.333V16A1.333,1.333,0,0,0,5.333,17.333ZM4,26.667A1.333,1.333,0,0,0,5.333,28h8a1.333,1.333,0,0,0,1.334-1.333V21.333A1.333,1.333,0,0,0,13.333,20h-8A1.333,1.333,0,0,0,4,21.333Zm13.333,0A1.332,1.332,0,0,0,18.667,28h8A1.332,1.332,0,0,0,28,26.667V17.333A1.332,1.332,0,0,0,26.667,16h-8a1.332,1.332,0,0,0-1.334,1.333Zm1.334-13.334h8A1.332,1.332,0,0,0,28,12V5.333A1.332,1.332,0,0,0,26.667,4h-8a1.332,1.332,0,0,0-1.334,1.333V12A1.332,1.332,0,0,0,18.667,13.333Z" fill="#0e415e"/></g></svg>